<?xml version="1.0" standalone="no"?>
<!DOCTYPE svg PUBLIC "-//W3C//DTD SVG 1.1//EN" "http://www.w3.org/Graphics/SVG/1.1/DTD/svg11.dtd" >
<svg xmlns="http://www.w3.org/2000/svg">
<metadata>
Created by FontForge 20120731 at Fri Aug 26 13:35:41 2016
 By admin
</metadata>
<defs>
<font id="iconfont" horiz-adv-x="1024" >
  <font-face 
    font-family="iconfont"
    font-weight="500"
    font-stretch="normal"
    units-per-em="1024"
    panose-1="2 0 6 3 0 0 0 0 0 0"
    ascent="896"
    descent="-128"
    x-height="792"
    bbox="-5 -279 1472.02 1047"
    underline-thickness="50"
    underline-position="-100"
    unicode-range="U+0078-E668"
  />
<missing-glyph horiz-adv-x="374" 
d="M34 0v682h272v-682h-272zM68 34h204v614h-204v-614z" />
    <glyph glyph-name=".notdef" horiz-adv-x="374" 
d="M34 0v682h272v-682h-272zM68 34h204v614h-204v-614z" />
    <glyph glyph-name=".null" horiz-adv-x="0" 
 />
    <glyph glyph-name="nonmarkingreturn" horiz-adv-x="341" 
 />
    <glyph glyph-name="x" unicode="x" horiz-adv-x="1001" 
d="M281 543q-27 -1 -53 -1h-83q-18 0 -36.5 -6t-32.5 -18.5t-23 -32t-9 -45.5v-76h912v41q0 16 -0.5 30t-0.5 18q0 13 -5 29t-17 29.5t-31.5 22.5t-49.5 9h-133v-97h-438v97zM955 310v-52q0 -23 0.5 -52t0.5 -58t-10.5 -47.5t-26 -30t-33 -16t-31.5 -4.5q-14 -1 -29.5 -0.5
t-29.5 0.5h-32l-45 128h-439l-44 -128h-29h-34q-20 0 -45 1q-25 0 -41 9.5t-25.5 23t-13.5 29.5t-4 30v167h911zM163 247q-12 0 -21 -8.5t-9 -21.5t9 -21.5t21 -8.5q13 0 22 8.5t9 21.5t-9 21.5t-22 8.5zM316 123q-8 -26 -14 -48q-5 -19 -10.5 -37t-7.5 -25t-3 -15t1 -14.5
t9.5 -10.5t21.5 -4h37h67h81h80h64h36q23 0 34 12t2 38q-5 13 -9.5 30.5t-9.5 34.5q-5 19 -11 39h-368zM336 498v228q0 11 2.5 23t10 21.5t20.5 15.5t34 6h188q31 0 51.5 -14.5t20.5 -52.5v-227h-327z" />
    <glyph glyph-name="uniE600" unicode="&#xe600;" horiz-adv-x="1000" 
d="M679 579q14 0 31 -1q-21 99 -116 165t-216 66q-90 0 -165.5 -37t-120 -101.5t-44.5 -141.5q0 -131 132 -223l-33 -99l115 58q84 -17 116 -17q14 0 31 2q-11 34 -11 69q0 108 82 184t199 76zM501 669q19 0 30.5 -11.5t11.5 -30t-11.5 -30t-30.5 -11.5t-34 12t-15 30
t15 29.5t34 11.5zM271 586q-20 0 -35 12t-15 30t15 29.5t35 11.5q18 0 29.5 -11.5t11.5 -30t-11.5 -30t-29.5 -11.5zM979 323q0 64 -38.5 119.5t-103 87.5t-138.5 32q-117 0 -198.5 -70t-81.5 -169.5t81.5 -169.5t198.5 -70q33 0 99 17l91 -50l-25 83q115 86 115 190z
M609 364q-13 0 -23 10t-10 22.5t10 23t23 10.5q18 0 29.5 -10t11.5 -23t-11.5 -23t-29.5 -10zM790 364q-12 0 -22.5 10t-10.5 22.5t10.5 23t22.5 10.5q18 0 29.5 -10t11.5 -23t-11.5 -23t-29.5 -10z" />
    <glyph glyph-name="uniE601" unicode="&#xe601;" 
d="M971 143l-2 18l-3 17l-3 9l-2 9l-3 9l-4 10l-3 10l-4 9l-8 16l-6 14l-7 13l-5 11l-7 11l-5 9l-10 15l-12 19l-3 5l-1 2v1l2 7l3 6l2 11l2 6v6v5v5v6l-1 4l-2 10l-2 9l-3 8l-3 8l-4 7l-3 7l-3 6l-6 9l-2 3v2l-3 18l-1 11l-2 14l-3 15l-4 17l-3 9l-2 8l-3 9l-3 10l-3 9
l-4 10l-8 19l-5 9l-6 10l-5 9l-6 10l-7 10l-7 8l-8 10l-8 8l-8 8l-9 9l-5 3l-5 4l-11 7l-12 8l-12 7l-13 7l-13 6l-13 6l-14 4l-15 4l-13 4l-15 3l-13 4l-15 1l-14 2l-15 2h-15h-14h-14l-14 -1l-14 -2l-14 -2l-13 -2l-14 -3l-13 -3l-13 -4l-12 -4l-12 -4l-12 -6l-12 -5
l-10 -6l-10 -6l-10 -7l-10 -8l-8 -7l-12 -12l-10 -10l-10 -11l-9 -11l-9 -11l-7 -10l-7 -11l-4 -5l-3 -6l-7 -10l-5 -10l-5 -10l-4 -10l-4 -9l-3 -9l-3 -9l-4 -8l-4 -16l-3 -15l-1 -12l-2 -11v-8v-7v-6l-3 -3l-3 -4l-2 -4l-2 -4l-2 -9l-3 -9v-7l-1 -6v-6l-6 -8l-4 -9l-3 -8
l-2 -7l-2 -7l-2 -6v-6v-6v-5l1 -4l2 -7l1 -6l-3 -3l-9 -6l-12 -11l-7 -7l-7 -6l-5 -5l-4 -5l-9 -9l-8 -10l-7 -8l-8 -11l-7 -11l-7 -12l-7 -11l-5 -11l-5 -11l-4 -10l-4 -11l-3 -11l-3 -11l-3 -10l-2 -10l-1 -9l-2 -10l-1 -18v-17v-7l1 -7l2 -13l1 -6l2 -5l2 -6l1 -3l3 -7
l2 -2l2 -3h1h1h1h7l7 2l7 3l6 4l6 4l5 5l6 5l5 6l5 6l4 6l4 4l2 6l5 8l2 4l1 2v3l1 2h1l2 1h1v-1h1h1l3 -12l2 -10l4 -10l4 -9l4 -9l5 -8l4 -9l4 -7l5 -7l3 -6l10 -12l9 -11l8 -8l8 -7l7 -6l11 -10l4 -2l2 -2v-1l-1 -1h-1h-2l-8 -1l-7 -1l-6 -1l-7 -1l-5 -2l-6 -2l-5 -2
l-4 -3l-5 -1l-3 -3l-3 -2l-4 -3l-4 -5l-2 -3l-2 -2l-3 -6l-2 -5l-1 -5l-1 -4v-6v-3l-1 -4v-4l-1 -4v-3l1 -4l1 -4l2 -7l2 -3l2 -3l2 -3l3 -3l3 -3l2 -3l7 -5l8 -4l8 -5l9 -3l9 -4l11 -2l10 -4l11 -2l12 -2l11 -2l12 -1l24 -3h24h23h10h10h11l9 1l9 1l8 1l13 2l9 3l9 2l17 7
l8 3l7 3l12 7l10 6l8 5l6 5l9 -1l7 -1l14 -1h6h6l4 -1l4 -1l7 -3l8 -2l14 -5l15 -5l14 -4l14 -3l15 -4l15 -2l15 -2l14 -2l14 -1l15 -1h13h14h13l13 1l13 1l12 2l11 3l11 2l11 3l5 1l5 2l9 3l8 4l8 4l8 4l6 5l3 3l3 4l4 4l4 6l1 3l1 3l2 3l1 3v4l1 3l-1 5l-1 4l-2 5l-1 4
l-3 5l-3 5l-3 3l-4 4l-9 7l-10 8l-10 5l-10 6l-23 12l-6 3l-2 2l-1 1l12 11l5 6l4 5l8 12l7 11l6 11l6 10l8 20l7 16l4 12l2 4l2 3l2 2h1h1l6 -12l5 -12l4 -7l4 -5l4 -7l5 -7l4 -5l3 -2l2 -3l2 -1l3 -2l4 -2l3 -1h2h2l2 1l4 1l3 2l3 2l3 3l3 4l2 3l3 5l2 3l2 6l2 4l3 11
l2 12l2 14l1 8v6v7v9z" />
    <glyph glyph-name="uniE602" unicode="&#xe602;" 
d="M339 -66q-20 -20 -48.5 -20t-48.5 20l-96 96q-20 20 -20 48.5t20 48.5l125 125l117 117q-39 24 -85.5 18.5t-80.5 -39.5l-173 -173q-40 -40 -40 -96.5t40 -96.5l145 -145q40 -40 96.5 -40t96.5 40l173 173q34 34 39 80.5t-18 85.5zM975 618l-145 145q-40 40 -96.5 40
t-96.5 -40l-173 -173q-34 -34 -39.5 -80.5t18.5 -85.5l242 242q20 20 48.5 20t48.5 -20l96 -96q20 -20 20 -48.5t-20 -48.5l-242 -242q39 -24 85.5 -18.5t80.5 39.5l173 173q40 40 40 96.5t-40 96.5zM327 139l24 -24q15 -15 36 -15t36 15l274 274q15 15 15 36t-15 36l-24 24
q-15 15 -36 15t-36 -15l-274 -274q-15 -15 -15 -36t15 -36z" />
    <glyph glyph-name="uniE603" unicode="&#xe603;" 
d="M512 786q79 0 134.5 -52t55.5 -125q0 -44 -22 -82l154 -112q30 20 67 20q48 0 82 -32t34 -77.5t-34 -77.5t-82.5 -32t-82.5 32t-34 77q0 20 8 39l-154 112q-39 -33 -91 -42v-171q51 -11 85 -50.5t34 -89.5q0 -60 -45 -102t-108.5 -42t-108.5 42t-45 102q0 50 33.5 89.5
t85.5 50.5v171q-52 9 -92 42l-153 -112q8 -19 8 -39q0 -45 -34.5 -77t-82.5 -32t-82.5 32t-34.5 77.5t34.5 77.5t82.5 32q37 0 67 -20l153 112q-21 38 -21 82q0 73 55.5 125t133.5 52z" />
    <glyph glyph-name="uniE604" unicode="&#xe604;" 
d="M641 696zM512 883q-39 0 -55 -4q-64 -5 -128 -31q335 -331 343 -343v351q-24 8 -31 8q-65 19 -129 19zM641 696v0v0zM820 517zM863 739q-27 27 -43 39q-56 43 -113 66q4 -472 0 -487l249 249q-1 4 -7 14t-8 14q-27 54 -78 105zM820 517v0v0zM824 255zM972 567
q-331 -335 -343 -343h355q8 24 8 31q15 58 15 129q0 39 -4 55q-6 79 -31 128zM824 255v0v0zM641 72zM481 185l249 -249q24 11 28 15q52 29 101 78q27 27 39 43q43 56 66 113v0v0v0v0v0v0h-1v0v0h-1v0v0h-1v0h-1v0h-1v0h-1v0h-1v0h-1h-1v0h-1h-1h-1h-1h-1h-1h-1h-1h-1h-1h-1
h-1h-1h-1h-1h-1h-1h-1h-1h-1h-1h-1h-1h-1h-1h-1h-1h-1h-1h-1h-1h-1h-1h-1h-1h-1h-1h-1h-1h-1h-1h-1h-1h-1h-1h-1h-1h-1h-1h-1h-1h-1h-1h-1h-1h-1h-1h-1h-1h-1h-1h-1h-1h-1h-1h-1h-1h-1h-1h-1h-1h-1h-1h-1h-1h-1h-1h-1h-1h-1h-1h-1h-1h-1h-1h-1h-1h-1h-2h-1h-1h-1h-1h-1h-1
h-1h-1h-1h-2h-1h-1h-1h-1h-1h-1h-1h-2h-1h-1h-1h-1h-1h-2h-1h-1h-1h-1h-1h-2h-1h-1h-1h-1h-2h-1h-1h-1h-2h-1h-1h-1h-2h-1h-1h-1h-2h-1h-1h-1h-2h-1h-1h-1h-2h-1h-1h-2h-1h-1h-1h-2h-1h-1h-2h-1h-1h-2h-1h-1h-2h-1h-1h-2h-1h-1h-2h-1h-1h-2h-1h-1h-2h-1h-2h-1h-1h-2h-1h-1
h-2h-1h-2h-1h-1h-2h-1h-2h-1h-1h-2h-1h-2h-1h-2h-1h-1h-2h-1h-2h-1h-2h-1h-2h-1h-2h-1h-1h-2h-1h-2h-1h-2h-1h-2h-1h-2h-1h-2h-1h-2h-1h-2h-1h-2h-1h-2h-1h-2h-1h-2h-1h-2h-1h-2h-2h-1h-2h-1h-2h-1h-2h-1h-2h-1h-2h-2h-1h-2h-1h-2h-1h-2h-2h-1h-2h-1h-2h-2h-1h-2h-1h-2h-2
h-1h-2h-1h-2h-2h-1h-2h-1h-2h-2h-1h-2h-2h-1h-2h-1h-2h-2h-1h-2h-2h-1h-2h-2h-1h-2h-2h-1h-2h-1h-2h-2h-1h-2h-2h-1h-2h-2h-2h-1h-2h-2h-1h-2h-2h-1h-2h-2h-1h-2h-2h-1h-2h-2h-1h-2h-2h-2h-1h-2h-2h-1h-2h-2h-1h-2h-2h-1h-2h-2h-2h-1h-2h-2h-1h-2h-2h-1h-2h-1h-2h-2h-1h-9z
M641 72v0v0zM383 72zM352 267v-355q24 -8 31 -8q58 -15 129 -15q39 0 55 4q64 5 128 31q0 -2 -84 80.5t-169.5 169t-89.5 93.5zM383 72v0v0zM204 255zM317 411l-249 -249q1 -4 7 -14t8 -14q29 -52 78 -101q27 -27 43 -39q56 -43 113 -66q0 -2 0 24.5t-0.5 67.5t-0.5 92.5
t-0.5 102.5t-0.5 94.5t0.5 71.5t1.5 30zM204 255v0v0zM204 513zM32 513q-15 -58 -15 -129q0 -39 4 -55q5 -64 31 -128q331 335 343 343h-355q-2 -6 -4 -15.5t-4 -15.5v0zM204 513v0v0zM383 692zM262 813q-52 -29 -101 -78q-15 -12 -39 -43q-43 -56 -66 -113q472 4 487 0
l-249 249q-24 -7 -32 -15zM383 692v0v0zM383 692z" />
    <glyph glyph-name="uniE605" unicode="&#xe605;" 
d="M1000 668l-91 -146q-9 -15 -26.5 -19t-32.5 5.5t-19 27t6 32.5l36 59l-183 -42q13 -123 -59.5 -224t-194.5 -129q-22 -5 -49 -7v-123h82q18 0 30 -12t12 -29t-12 -29t-30 -12h-82v-101l-11 -11q-13 -13 -31 -13t-30 13l-10 10v102h-83q-17 0 -29 12t-12 29t12 29t29 12
h83v127q-123 15 -206 108t-83 219q0 89 44.5 165t120 120t165.5 44q28 0 58 -5q91 -12 163.5 -69.5t103.5 -144.5l185 42l-60 38q-16 10 -20 27t5.5 32.5t27 19t32.5 -5.5l145 -92q15 -10 19 -27t-5 -32z" />
    <glyph glyph-name="uniE606" unicode="&#xe606;" 
d="M509 -89v94q0 60 1 87q0 10 1 12v-180q0 -11 -2 -13zM747 9q-1 -3 -9 -3h-179q2 3 13 3h171q1 2 2 0h2zM511 104q2 2 12 2q56 0 168 1q-3 -3 -13 -3h-167zM556 3v-118h-1v119zM745 9h-2v61h2v-61zM745 -123v-59h-1v59h1zM190 298q-2 4 -1 13q2 -2 2 -4.5t-0.5 -5
t-0.5 -3.5zM189 136v13h1v-13h-1zM831 11q-1 0 -3 2t-4 2q5 2 6 1t1 -5zM770 674v14q5 -7 0 -14zM918 -57q-4 -1 -15 -8q-24 -18 -71.5 -54t-72.5 -53q-6 -4 -7 -4q-1 3 -1 11v11v12v11q0 10 -3 12.5t-13 3.5h-12h-146q-10 0 -12.5 2t-2.5 12v91q0 10 3 13q3 2 14 2h147
q13 0 17 3q1 5 1 16v-13q0 -2 2 -3q4 1 5 12v17v18q0 7 2 7q2 1 7 -3l14 -10q41 -31 48 -35q9 -1 9 -6q2 -2 6 -5q8 -7 23 -18t27 -20.5t23 -17.5q5 -4 8 -3q3 2 3 11v757q0 42 -29 71t-72 29h-617q-42 0 -71 -29t-29 -71v-825q0 -41 29 -70t70 -29h620q32 0 60 21
q28 22 35 52q7 36 1 82zM744 37v27v-27zM511 104q-1 -2 -1 -12v-169q0 -10 -1 -12q-10 -25 -31.5 -33.5t-46.5 1.5q-14 7 -22 25q-2 1 -2 12v92v92q0 1 -1 4h-171q-11 0 -12 3q-30 9 -30 33q0 25 21 36q16 8 37 8q119 0 143 -1q8 0 11 2.5t2 10.5q-1 25 0 59q0 7 -2 9.5
t-10 2.5h-146q-21 0 -31 3q-22 7 -25 27q-3 25 16 38q16 10 40 10h97q6 0 7 1.5t-3 6.5q-94 145 -175 268q-8 12 -14 18q-21 22 -13.5 49t35.5 34q15 4 38 -10q16 -10 29 -28q22 -34 63.5 -95.5t75.5 -112t64 -94.5q3 -6 5.5 -6t6.5 5q27 41 203 304q20 28 45 36
q17 4 32.5 -3t21.5 -23q1 -1 3 -7q3 -7 0 -14q-4 -12 -11 -25t-11.5 -20.5t-15.5 -23.5t-14 -21l-75 -114q-50 -76 -75 -115q-4 -7 -3 -8q1 -2 9 -2h93q23 0 37 -9q23 -14 20 -35q-3 -24 -29 -31q-8 -2 -27 -2h-147q-6 0 -8.5 -2.5t-2.5 -8.5q1 -31 0 -62q0 -7 2.5 -9
t8.5 -2h73h73q17 0 31 -5q11 -5 19 -15.5t8 -21.5q-1 -24 -29 -33q-2 -1 -5 -2q-2 -1 -12 -1q-103 0 -155 -1q-11 0 -13 -1z" />
    <glyph glyph-name="uniE607" unicode="&#xe607;" 
d="M512 741q-90 0 -171.5 -35t-140.5 -94t-94 -140.5t-35 -171.5t35 -171.5t94 -140.5t140.5 -94t171.5 -35t171.5 35t140.5 94t94 140.5t35 171.5t-35 171.5t-94 140.5t-140.5 94t-171.5 35zM737 165h-324l52 -88l-74 -42q-104 158 -104 175q0 1 1 2v2q0 3 1 4
q3 16 15 26.5t28 10.5h11q5 1 9 0h385v-90zM736 386q0 -3 -1 -4q-3 -16 -15 -26.5t-28 -10.5h-11q-5 -1 -9 0l-385 3v90l324 -3l-52 88l74 42q104 -158 104 -175q0 -1 -1 -2v-2z" />
    <glyph glyph-name="uniE608" unicode="&#xe608;" 
d="M537 264l-345 -359v970h693v-970z" />
    <glyph glyph-name="uniE609" unicode="&#xe609;" 
d="M807.5 114q-40.5 0 -69 26t-28.5 62h-97q0 -36 -29 -62t-69 -26t-68.5 26t-28.5 62h-98q0 -36 -28.5 -62t-69 -26t-69 26t-28.5 62v-66q0 -101 78.5 -172.5t189.5 -71.5h244q111 0 189.5 71.5t78.5 172.5v66q0 -36 -28.5 -62t-69 -26zM905 424q0 37 -28.5 63t-68.5 26
h-269q10 0 17.5 7t7.5 17v129q0 10 -7.5 17t-17.5 7h-48q-10 0 -17.5 -7t-7.5 -17v-129q0 -10 7.5 -17t17.5 -7h-269q-40 0 -68.5 -26t-28.5 -63v-44q0 -24 13 -45q-13 -21 -13 -44q0 -37 28.5 -63t69 -26t69 26t28.5 63h98q0 -37 28.5 -63t68.5 -26t69 26t29 63h97
q0 -37 28.5 -63t69 -26t69 26t28.5 63q0 23 -13 44q13 21 13 45v44zM501 734q24 0 43.5 30t19.5 53q0 21 -18.5 35.5t-44.5 14.5q-15 0 -15 -5.5t7.5 -19.5t7.5 -25q0 -9 -7.5 -32t-7.5 -37t15 -14z" />
    <glyph glyph-name="uniE60A" unicode="&#xe60a;" 
d="M686 793q-24 -11 -29 -32.5t13 -38.5q8 -9 21 -11.5t48 -2.5q95 0 144 -56q31 -35 38.5 -58.5t7.5 -87.5q0 -56 2 -67.5t15 -18.5q30 -18 50 3t27 77q9 74 -29.5 150t-105.5 115q-43 25 -105.5 33.5t-96.5 -5.5v0zM355 668q-111 -40 -226 -162q-138 -148 -130 -278
t161 -205q105 -51 227.5 -58.5t235.5 28.5t189 109q58 54 74 114t-11.5 109t-92.5 72q-17 6 -23.5 11t-3.5 11q20 50 9 84q-16 48 -70.5 58.5t-139.5 -18.5l-45 -15l4 45q4 40 -5 63t-33 35q-20 10 -54 9t-66 -12v0zM542 408q75 -21 118.5 -64t43.5 -96q0 -60 -50 -111
t-137 -80q-47 -15 -119 -17.5t-115 9.5q-80 22 -123.5 65t-43.5 100q0 61 58 115q28 26 53.5 41t65.5 29q128 43 249 9zM330 342q-104 -48 -104 -140q0 -80 77 -121q31 -17 79.5 -16t83.5 19q43 23 69.5 62.5t26.5 81.5q0 34 -26.5 69.5t-61.5 50.5q-29 12 -71 10t-73 -16v0
zM379 216q9 -8 9 -26q0 -26 -31.5 -41t-48.5 2q-9 10 -7.5 29t13 30.5t34 13t31.5 -7.5zM697 655q-23 -23 -10 -45.5t49 -22.5q32 0 47 -17t15 -53q0 -23 2.5 -32t11.5 -15q28 -19 47 -0.5t19 63.5q0 55 -35.5 92t-91.5 41q-25 2 -34.5 0t-19.5 -11v0zM697 655z" />
    <glyph glyph-name="uniE60B" unicode="&#xe60b;" 
d="M779.5 -70q-45.5 0 -86.5 17.5t-71.5 48t-48 71.5t-17.5 86.5t17.5 86.5t48 71t71.5 47.5t86.5 17.5t86.5 -17.5t71 -47.5t47.5 -71t17.5 -86.5t-17.5 -86.5t-47.5 -71.5t-71 -48t-86.5 -17.5zM890 190h-81v75q0 15 -10 26t-25 11t-24 -11t-9 -26v-75h-71q-15 0 -26 -11
t-11 -26.5t11 -23t26 -7.5h71v-78q0 -15 9 -26t24 -11t25 11t10 26v78h81v-2q15 0 26 8.5t11 24t-11 26.5t-26 11zM620 462q-4 -18 -9 -32q-4 -12 -10.5 -24.5t-14.5 -19.5q-10 -7 -13.5 -16t-6.5 -18l-6 -20q-3 -9 -11 -19q-25 -33 -37.5 -63.5t-17.5 -59t-3 -56t9 -54.5
q4 -19 13 -40.5t26 -44t43 -43.5t65 -41q-26 -5 -61 -10q-29 -3 -72.5 -6t-98.5 -3q-29 0 -66.5 2.5t-77.5 5.5t-78.5 7.5t-71 9.5t-54.5 10.5t-28 9.5q-10 9 -15.5 49t3.5 104q5 36 28.5 55t55.5 30t66.5 20.5t60.5 25.5q21 13 31.5 24.5t15 23.5t4.5 25.5t-1 28.5
q-2 23 -15.5 36t-29.5 26q-8 7 -15 20t-11 25q-5 14 -9 32q-7 2 -14 6q-5 4 -11.5 13t-12.5 26q-5 17 -3.5 31t5.5 24q5 12 12 21q0 37 5 74q4 32 13.5 68t29.5 64t42.5 45t46.5 27t48 14t46 4q28 0 54.5 -6.5t48.5 -17.5t39.5 -24.5t28.5 -28.5q25 -31 36.5 -69.5
t17.5 -72.5q5 -39 4 -78q7 -6 11 -13t6.5 -18t0.5 -27q-3 -21 -9.5 -33t-13.5 -19q-9 -7 -19 -10z" />
    <glyph glyph-name="uniE60C" unicode="&#xe60c;" 
d="M795 895h-566q-17 0 -29 -11.5t-12 -28.5v-942q0 -17 12 -28.5t29 -11.5h566q17 0 29 11.5t12 28.5v942q0 17 -12 28.5t-29 11.5zM478 840h68q9 0 16 -6.5t7 -16t-7 -16t-16 -6.5h-68q-9 0 -16 6.5t-7 16t7 16t16 6.5zM557 -78h-90v90h90v-90zM767 80q0 -17 -12 -29
t-29 -12h-428q-17 0 -29 12t-12 29v648q0 17 12 29t29 12h428q17 0 29 -12t12 -29v-648z" />
    <glyph glyph-name="uniE60D" unicode="&#xe60d;" 
d="M512 662q115 0 196 -81.5t81 -196.5t-81 -196t-196 -81t-196.5 81t-81.5 196t81.5 196.5t196.5 81.5zM512 715q-90 0 -166 -44.5t-120.5 -120.5t-44.5 -165.5t44.5 -166t120.5 -120.5t165.5 -44t166 44t120.5 120.5t44 166t-44 165.5t-120.5 120.5t-165.5 44.5zM318 385
q0 -80 56.5 -136t136.5 -56t136 56t56 136t-56 136.5t-136 56.5t-136.5 -56.5t-56.5 -136.5zM471 61h83v-174h-83v174zM15 426h174v-83h-174v83zM471 884h83v-174h-83v174zM835 426h174v-83h-174v83z" />
    <glyph glyph-name="uniE60E" unicode="&#xe60e;" horiz-adv-x="1473" 
d="M1040 301q12 21 17 47q4 29 -3.5 60t-34.5 41q-4 2 -9 2q-26 0 -74 -20t-93 -49l3 -81h194zM199 -116l236 267h-433v-180q0 -88 49.5 -135.5t147.5 -47.5h227l-36 142zM1471 151h-421l236 -267l-191 46l-36 -142h210q99 0 151.5 50t51.5 138zM683 383q-45 29 -92.5 49
t-73.5 20q-5 0 -10 -1q-26 -10 -34 -40.5t-4 -60.5q5 -28 18 -49h192zM266 301q-12 42 -12.5 82t12 77.5t37 66.5t67 49t97.5 26q138 14 296 -132q167 153 306 132q47 -7 84 -27.5t59 -50t35 -66.5t12.5 -76.5t-8.5 -80.5h220l-1 288q0 44 -10.5 83t-31.5 70.5t-57.5 49.5
t-84.5 18l-1059 2q-97 0 -162 -69.5t-65 -159.5l1 -282h265zM735 151l-298 -363h611l-298 363h-15z" />
    <glyph glyph-name="uniE60F" unicode="&#xe60f;" 
d="M512 802q-102 0 -195 -39.5t-160.5 -107t-107 -160.5t-39.5 -195t39.5 -195t107 -160.5t160.5 -107t195 -39.5t195 39.5t160.5 107t107 160.5t39.5 195t-39.5 195t-107 160.5t-160.5 107t-195 39.5zM683 109l-18 -18q-7 -7 -17.5 -7t-17.5 7l-163 163q-5 5 -5 28v319
q0 11 7 18t18 7h25q10 0 17.5 -7t7.5 -18v-311l146 -145q7 -8 7 -18t-7 -18zM683 109z" />
    <glyph glyph-name="uniE610" unicode="&#xe610;" 
d="M512 810q-104 0 -198.5 -40.5t-162.5 -108.5t-108.5 -162.5t-40.5 -198.5t40.5 -198.5t108.5 -162.5t162.5 -108.5t198.5 -40.5t198.5 40.5t162.5 108.5t108.5 162.5t40.5 198.5t-40.5 198.5t-108.5 162.5t-162.5 108.5t-198.5 40.5zM794 471q-61 -53 -120.5 -113.5
t-100 -108t-72.5 -87.5t-47 -62l-15 -22l-209 205l117 92l100 -94q21 18 56.5 48t127 97.5t161.5 107.5v-63h2z" />
    <glyph glyph-name="uniE611" unicode="&#xe611;" horiz-adv-x="1399" 
d="M1298 -64h-41v592q0 27 -19 46t-46 19h-290v389q0 27 -19 46t-46 19h-642q-27 0 -46 -19t-19 -46v-1046h-15q-27 0 -46 -19t-19 -46v-85q0 -27 19 -46t46 -19h1183q27 0 46 19t19 46v85q0 27 -19 46t-46 19zM716 173q0 -27 -19 -46t-46 -19h-270q-27 0 -46 19t-19 46v19
q0 27 19 46t46 19h270q27 0 46 -19t19 -46v-19zM716 456q0 -27 -19 -46t-46 -19h-270q-27 0 -46 19t-19 46v20q0 27 19 46t46 19h270q27 0 46 -19t19 -46v-20zM716 761q0 -27 -19 -46t-46 -19h-270q-27 0 -46 19t-19 46v20q0 27 19 46t46 19h270q27 0 46 -19t19 -46v-20z
M1130 57h-173q-23 0 -38.5 16t-15.5 38.5t15.5 38t38.5 15.5h173q22 0 38 -15.5t16 -38t-16 -38.5t-38 -16zM1130 276h-173q-23 0 -38.5 15.5t-15.5 38t15.5 38.5t38.5 16h173q22 0 38 -16t16 -38.5t-16 -38t-38 -15.5zM1130 276z" />
    <glyph glyph-name="uniE612" unicode="&#xe612;" 
d="M955 420v473h-879v-473h-73v-480q0 -26 18 -45.5t41 -19.5h900q27 0 43 17.5t16 40.5v487h-66zM150 762h732v-342h-732v342zM208 689h608v-65h-608v65zM208 551h608v-65h-608v65zM208 551z" />
    <glyph glyph-name="uniE613" unicode="&#xe613;" 
d="M505 889q-103 0 -197 -40t-162 -108t-108.5 -162t-40.5 -197.5t40.5 -197.5t108.5 -162t162 -108.5t197 -40.5t197.5 40.5t162.5 108.5t108 162t40 197.5t-40 197.5t-108 162t-162.5 108t-197.5 40zM505 -17q-108 0 -200 53t-145.5 145t-53.5 200.5t53.5 200t145.5 145
t200 53.5t200 -53.5t145.5 -145t53.5 -200t-53.5 -200.5t-145.5 -145t-200 -53zM505 735q-96 0 -177.5 -47.5t-128.5 -129t-47 -177.5t47 -177t128.5 -128.5t177.5 -47.5t177.5 47.5t128.5 128.5t47 177t-47 177.5t-128.5 129t-177.5 47.5zM763 272h-1v1l-128 84q2 14 2 24
q0 12 -2 25l128 84q0 1 1 1q22 -52 22 -109.5t-22 -109.5zM727 552l-1 -1l-137 -70q-18 15 -40 23l-7 154l-1 1q56 -8 104 -36t82 -71zM505 319q-26 0 -44 18.5t-18 44t18 44t44 18.5t44 -18.5t18 -44t-18 -44t-44 -18.5zM471 659v-1l-9 -153q-23 -9 -42 -25l-138 69v0
q34 46 83 74.5t106 35.5zM247 488v0l129 -84q-2 -13 -2 -23t2 -23l-129 -83v-1q-22 52 -22 107.5t22 106.5zM282 213v0l138 69q19 -16 42 -24l9 -153v-1q-57 7 -106 35.5t-83 73.5zM541 104h1v1l8 154q21 8 39 23l137 -71h1q-34 -43 -82 -71.5t-104 -35.5z" />
    <glyph glyph-name="uniE614" unicode="&#xe614;" 
d="M185 457q-10 0 -17 -7.5t-7 -17.5v-96q0 -10 7 -17.5t17 -7.5t17.5 7.5t7.5 17.5v96q0 10 -7.5 17.5t-17.5 7.5zM936 420h-256q-14 128 -110.5 215.5t-226.5 87.5q-92 0 -170.5 -45.5t-123.5 -123.5t-45 -170t45 -170t123.5 -123.5t170.5 -45.5q130 0 226.5 87.5
t110.5 215.5h256q5 0 8.5 -3.5t3.5 -8.5v-61q0 -15 11 -25.5t26 -10.5t25.5 10.5t10.5 25.5v61q0 35 -25 59.5t-60 24.5zM343 117q-110 0 -188.5 78.5t-78.5 188.5t78.5 188.5t188.5 78.5t188 -78.5t78 -188.5t-78 -188.5t-188 -78.5z" />
    <glyph glyph-name="uniE615" unicode="&#xe615;" 
d="M936 485h-270q21 79 28.5 144.5t3 106.5t-16.5 72t-26 46.5t-29.5 24.5t-22.5 11t-10 2q-26 0 -41 -9.5t-18 -20.5t-4 -24t-2 -15q0 -53 -20.5 -107.5t-50.5 -94t-59.5 -71.5t-49.5 -48l-21 -17v-537q0 -24 20 -41.5t41.5 -24t39.5 -6.5h406q17 0 34.5 25.5t26.5 49
t9 25.5q44 152 69.5 266t28 140.5t2.5 37.5q0 20 -7 34t-17 19.5t-20 8.5t-17 3h-7v0zM936 485zM216 485h-162q-30 0 -34 -30v-3l33 -542q0 -15 8.5 -23.5t17.5 -9.5l9 -1h140q13 0 20.5 5.5t7.5 11.5l1 6v545q0 18 -10.5 28.5t-20.5 11.5l-10 1v0zM216 485z" />
    <glyph glyph-name="uniE616" unicode="&#xe616;" 
d="M1024 -23q0 147 -74 258.5t-186 138.5q46 18 74.5 59t28.5 91q0 67 -47.5 114.5t-114.5 47.5q-74 0 -123 -57q-4 78 -60.5 131.5t-135.5 53.5q-81 0 -138.5 -57.5t-57.5 -138.5q0 -62 34.5 -111.5t90.5 -71.5q-136 -32 -225.5 -167.5t-89.5 -313.5h773q0 11 -1 23h252z
M545 502q6 -44 33 -78.5t68 -49.5q-22 -6 -43 -15q-66 57 -145 76q53 21 87 67z" />
    <glyph glyph-name="uniE617" unicode="&#xe617;" 
d="M552 437v229q-20 2 -32 4h-2h-1q-29 -4 -45 -6v-227h-472v182q0 22 15 37t37 15h215q-101 21 -103 82q0 21 10.5 45t29 43.5t47.5 29.5t61 3q61 -14 108.5 -53.5t95.5 -98.5q23 29 42 49.5t47 45t60 40t66 19.5q56 7 99.5 -36t37.5 -86q-10 -62 -108 -83h212q22 0 37 -15
t15 -37v-182h-472zM321 827q-55 22 -88 -32q-23 -39 -5 -58q50 -51 237 -32q-35 44 -68.5 74.5t-75.5 47.5zM804 738q11 14 7 34.5t-18.5 36t-36 23t-45.5 -4.5q-70 -33 -143 -121q49 -5 98 -2q114 5 138 34zM475 -109h-385q-19 0 -32.5 13.5t-13.5 33.5v462h431v-509z
M980 -62q0 -20 -13.5 -33.5t-33.5 -13.5h-384v509h431v-462zM980 -62z" />
    <glyph glyph-name="uniE618" unicode="&#xe618;" 
d="M351 762q26 0 44 -18t18 -43v-245q0 -26 -18 -44t-44 -18h-245q-25 0 -43 18t-18 44v245q0 25 18 42.5t43 18.5h245zM351 272q26 0 44 -18t18 -43v-246q0 -26 -18 -43.5t-44 -17.5h-245q-25 0 -43 17.5t-18 43.5v246q0 25 18 43t43 18h245zM842 272q25 0 43 -18t18 -43
v-246q0 -26 -18 -43.5t-43 -17.5h-245q-26 0 -44 17.5t-18 43.5v246q0 25 18 43t44 18h245zM978 654q20 -20 20 -46.5t-20 -44.5l-182 -183q-20 -19 -46 -19t-45 19l-183 183q-18 18 -18 44.5t18 46.5l183 182q19 19 45 19t46 -19z" />
    <glyph glyph-name="uniE619" unicode="&#xe619;" 
d="M452 499l97 -564q72 74 132 125l130 -174q4 -6 11.5 -6t14.5 4l55 41q7 5 9 12t-2 13l-127 170q29 12 73 26t73 23l29 8zM295 239l-145 -106q-17 -12 -19.5 -32.5t10.5 -37.5t34 -21t38 8l144 106q17 12 19.5 33t-10.5 38t-33.5 20.5t-37.5 -8.5zM979 675
q-13 17 -33.5 20.5t-38.5 -9.5l-144 -105q-17 -12 -19.5 -32.5t10.5 -38t34 -21t38 9.5l144 105q17 12 19.5 33t-10.5 38zM306 784q-12 17 -32.5 20t-38.5 -9q-16 -12 -18.5 -32.5t9.5 -36.5l113 -148q13 -17 33.5 -20.5t36.5 8.5q17 13 20 33t-10 37zM591 608q21 -3 37.5 9
t19.5 33l23 179q2 21 -11 38t-34 20q-21 4 -37.5 -8.5t-19.5 -32.5l-23 -179q-2 -21 11 -38t34 -21zM318 409q2 20 -11 37t-34 21l-181 30q-22 3 -38.5 -9.5t-18.5 -32.5q-3 -22 9.5 -39t34.5 -20l181 -29q21 -4 37.5 8t20.5 34z" />
    <glyph glyph-name="uniE61A" unicode="&#xe61a;" 
d="M805 273q-43 0 -81 -19t-63 -53l-283 142q7 24 7 49q0 28 -8 54l282 142q25 -35 63.5 -55.5t82.5 -20.5q75 0 127.5 53t52.5 127.5t-52.5 127.5t-127 53t-127.5 -53t-53 -127q0 -11 1 -21l-297 -149q-52 50 -124 50q-74 0 -127 -53t-53 -127.5t53 -127.5t127.5 -53
t127.5 53l294 -147q-2 -13 -2 -25q0 -74 53 -127t127.5 -53t127 53t52.5 127.5t-52.5 127t-127.5 52.5z" />
    <glyph glyph-name="uniE61B" unicode="&#xe61b;" 
d="M883 68h-802h-19l2 17l1 9h-23v26h25l15 172h-24v26h26v1v1q3 21 14 38q10 17 27 29l2 1l302 182q48 27 105 29h1h428h19l-1 -16l-43 -498l-2 -16h-19l-33 -1h-1zM912 377l14 161q1 16 -18 17h-375q-43 -2 -78 -21l-251 -152q-14 -8 -12.5 -14.5t15.5 -8.5h686
q17 2 19 18zM754 315q-8 0 -9 -6l-1 -23q-1 -7 7 -7h136q8 0 8 7l2 23q1 6 -7 6h-136z" />
    <glyph glyph-name="uniE61C" unicode="&#xe61c;" 
d="M512 356q41 47 97.5 74t120.5 27l31 -3q42 70 42 148q0 121 -85 206.5t-206 85.5t-206 -85.5t-85 -206.5q0 -78 42 -148q29 3 31 3q64 0 120.5 -27t97.5 -74zM481 314q-69 8 -126 45t-92 95q-111 -12 -186 -94t-75 -194q0 -121 85.5 -206.5t206.5 -85.5q64 0 120.5 27
t97.5 74q-73 83 -73 191q0 78 42 148zM761 454q-35 -58 -92 -95t-126 -45q42 -70 42 -148q0 -108 -73 -191q41 -47 97.5 -74t120.5 -27q121 0 206.5 85.5t85.5 206.5q0 111 -75 193.5t-186 94.5zM481 314l31 -3q2 0 31 3q-13 22 -31 42q-18 -20 -31 -42z" />
    <glyph glyph-name="uniE61D" unicode="&#xe61d;" 
d="M915 445q-18 42 -22.5 81.5t-2.5 52.5t4 20q7 19 -7 33.5t-34 8.5l-9 -3q-6 -2 -20.5 -10t-28 -18.5t-29.5 -30t-27 -43.5q-14 -28 -24 -65q-12 30 -18 49q-14 45 -17 97t-0.5 87t11.5 77t11.5 49t6.5 21q7 17 -5 31.5t-31 12.5q-6 -1 -15.5 -3t-34 -9.5t-48 -19t-55 -33
t-58 -48.5t-52.5 -68.5t-44 -91.5q-40 -111 -29 -239q-28 24 -48 69q-21 46 -30 124q-3 22 -24 28q-22 6 -36 -11q-5 -7 -12.5 -17t-25.5 -37.5t-32.5 -55.5t-29 -66.5t-19.5 -72.5q-18 -115 22.5 -214.5t130.5 -165.5t213 -85q124 -18 231.5 18t177 119t87.5 197
q11 72 5.5 120.5t-32.5 111.5z" />
    <glyph glyph-name="uniE61E" unicode="&#xe61e;" 
d="M158 359h56l-27 82zM-5 631v-494h1034v494h-1034zM244 262l-16 50h-84l-18 -50h-55l85 247h63l81 -247h-56zM480 345q0 -17 -3 -31t-13 -27.5t-21 -18.5q-10 -5 -24 -7t-25 -2q-22 -1 -38 6t-26 15t-16 19t-8 20l-6 25h53q1 -7 4 -16q2 -7 11.5 -12.5t23.5 -5.5
q8 -1 17 2.5t12 10.5t4 14t2 25v147h53v-164zM651 312q-5 -15 -11 -25q-8 -10 -21 -17t-30 -8q-7 -1 -17.5 0.5t-22 7.5t-19.5 15t-11.5 18t-6 18.5t-2.5 14.5v16h46q0 -16 2.5 -23.5t8 -14.5t15.5 -6q4 0 9.5 2t10.5 7.5t5.5 16.5t-3.5 19q-4 5 -9 8.5t-12 4.5
q-3 1 -6.5 1.5t-4.5 0.5l-6 1v44q7 0 11 1q4 0 8.5 2.5t7 5.5t5.5 9.5t3 11.5q1 6 -1 11q-3 5 -7.5 7t-10.5 3q-7 0 -12 -2q-4 -3 -7.5 -7t-5 -8t-1.5 -10v-9l-46 1q1 8 2 15q2 10 5 22t13 22q9 11 21 15t20 5t17 1q19 -2 30.5 -8t18.5 -16q7 -9 11 -19q3 -10 3 -22
q-1 -18 -7.5 -28.5t-10.5 -12.5l-16 -9q9 -4 13 -6.5t9.5 -7.5t10 -15.5t5.5 -23t-4 -29.5zM829 263h-146v21q0 10 3.5 22t10.5 24q6 12 16 24t21 24l19 20q14 14 17 22t3 18t-6.5 17.5t-14.5 7t-12 -3.5q-3 -4 -6 -9.5t-3 -14.5l-1 -14h-47q0 9 1 15q0 7 2 20t14.5 29
t26.5 20q13 4 26 4t23.5 -4.5t18.5 -11.5q8 -6 17 -21q9 -14 9.5 -35t-5.5 -36q-5 -12 -18 -25q-12 -14 -30 -31t-20 -21l-11 -16h92v-45zM953 262h-49v192h-41v32h17q4 0 12 2.5t12 5.5q4 2 7 6l6 8l36 1v-247z" />
    <glyph glyph-name="uniE61F" unicode="&#xe61f;" 
d="M232 346v-12h153v153h-153v-141zM436 104h153v153h-153v-153zM896 895h-128v-64q0 -26 -18.5 -45t-45 -19t-45.5 19t-19 45v64h-255v-64q0 -26 -18.5 -45t-45 -19t-45 19t-18.5 45v64h-128q-53 0 -90.5 -37.5t-37.5 -90.5v-765q0 -53 37.5 -90.5t90.5 -37.5h766
q52 0 89.5 37.5t37.5 90.5v765q0 53 -37.5 90.5t-89.5 37.5zM896 53q0 -27 -12.5 -39t-38.5 -12h-664q-26 0 -38.5 12t-12.5 39v485q0 26 12.5 38.5t38.5 12.5h664q26 0 38.5 -12.5t12.5 -38.5v-485zM232 104h153v153h-153v-153zM436 334h153v153h-153v-153zM640 346v-12
h153v153h-153v-141zM640 104h153v153h-153v-153z" />
    <glyph glyph-name="uniE620" unicode="&#xe620;" 
d="M32 384l57 59l422 -280l422 281l57 -60l-479 -329zM32 565l479 329l479 -329l-479 -329zM511 -18l422 281l57 -60l-479 -329l-479 329l57 58z" />
    <glyph glyph-name="uniE621" unicode="&#xe621;" 
d="M443 136.5q0 17.5 12.5 30t30.5 12.5t30.5 -12.5t12.5 -30t-12.5 -30t-30.5 -12.5t-30.5 12.5t-12.5 30zM506 609q-15 12 -15 31q0 17 12 29t29 12q8 0 15 -3q26 -10 26 -38q0 -17 -12 -29t-29 -12q-15 0 -26 10zM601 301l-42 -71l-137 237l43 71zM579 194l42 72
l195 -338q23 -39 66 -51.5t81 10t49 66.5t-12 84l-254 441l123 208q35 -14 72.5 -0.5t58.5 47.5q23 39 12 82.5t-49 66t-81.5 11t-65.5 -50.5q-21 -35 -14.5 -74t36.5 -64l-112 -191l-95 164q-22 40 -65.5 52t-81.5 -10q-37 -22 -48.5 -64t8.5 -81l-42 -72l-194 338
q-23 39 -66 51.5t-81.5 -10t-49 -66.5t12.5 -84l253 -441l-122 -208q-36 14 -73.5 0.5t-57.5 -47.5q-23 -39 -12.5 -82.5t49 -66t81.5 -11t66 50.5q20 35 13.5 74t-35.5 64l112 191l94 -164q23 -40 66 -52t81 10q37 22 48.5 64t-8.5 81z" />
    <glyph glyph-name="uniE622" unicode="&#xe622;" 
d="M248 631.5q0 109.5 77.5 187t186.5 77.5t186.5 -77.5t77.5 -187t-77.5 -186.5t-186.5 -77t-186.5 77t-77.5 186.5zM973 -128q-6 120 -69 219t-166.5 154.5t-225.5 55.5t-225.5 -55.5t-166.5 -154.5t-69 -219h922z" />
    <glyph glyph-name="uniE623" unicode="&#xe623;" 
d="M247 -12v-116h692v861h-116v-745h-576zM224 733h253v-46h-253v46zM224 570h369v-46h-369v46zM224 407h369v-46h-369v46zM224 221h369v-47h-369v47zM85 896v-861h692v861h-692z" />
    <glyph glyph-name="uniE624" unicode="&#xe624;" 
d="M685 406l339 347l-113 112l-345 -347l-59 -176zM174 659h279v-39h-279v39zM177 89h413v-39h-413v39zM0 876v-984h807v569l-87 -89l-184 -67h54v-39h-413v39h270l46 138h-316v39h329l23 71l278 277v46h-807z" />
    <glyph glyph-name="uniE625" unicode="&#xe625;" 
d="M605 396h-605v-70h605v70zM1015 375.5q0 59.5 -42.5 101.5t-102.5 42t-102.5 -42t-42.5 -102t42.5 -102t102.5 -42t102.5 42.5t42.5 102zM419 47v-70h605v70h-605zM0 15.5q0 -59.5 42.5 -101.5t102.5 -42t102.5 42t42.5 101.5t-42.5 101.5t-102.5 42t-102.5 -42
t-42.5 -101.5zM419 768v-70h605v70h-605zM0 752.5q0 -59.5 42.5 -101.5t102.5 -42t102.5 42t42.5 101.5t-42.5 101.5t-102.5 42t-102.5 -42t-42.5 -101.5z" />
    <glyph glyph-name="uniE626" unicode="&#xe626;" 
d="M1020 567q0 3 -1.5 7t-10.5 10t-22 6q-17 0 -24.5 -8.5t-7.5 -18.5q1 -393 1 -399q0 -34 -28 -48q-79 -42 -221 -47q-60 -2 -138.5 17.5t-153.5 41t-119 22.5q-77 2 -174 -25q-9 -2 -17 -16t-2 -30q6 -14 20 -17t21 2q43 14 71 18.5t85 3.5q23 0 69 -13t93.5 -27.5
t115.5 -26t129 -9.5q86 2 165 20.5t101 31.5q49 27 49 69q0 13 -1 436zM678 127q130 0 193 34q16 8 24 18.5t8 18.5v240v252q0 18 -21 25q-14 4 -36 2q-14 -1 -37.5 -10t-58 -17.5t-79.5 -8.5q-59 0 -134.5 19.5t-147.5 39t-121 19.5q-87 -1 -141.5 -8.5t-68 -14
t-32.5 -19.5q-12 -8 -17.5 -21t-5.5 -22v-481q0 -10 15 -19.5t35 -3.5q111 34 212 34q54 0 128.5 -19t151 -38.5t133.5 -19.5zM453.5 638q83.5 0 142 -57t58.5 -138t-58.5 -138.5t-142 -57.5t-142 57.5t-58.5 138.5t58.5 138t142 57zM358 470q0 -9 7 -15.5t16 -6.5h51v-28
h-51q-9 0 -16 -6.5t-7 -16t7 -16t16 -6.5h51v-59q0 -9 6.5 -16t16 -7t16.5 7t7 16v59h51q9 0 16 6.5t7 16t-7 16t-16 6.5h-51v28h51q9 0 16 6.5t7 15.5t-7 16t-16 7h-29l42 41q7 7 7 16.5t-6.5 16t-16 6.5t-16.5 -7l-55 -53l-55 53q-7 7 -16.5 7t-16.5 -6.5t-6.5 -16
t6.5 -16.5l43 -41h-29q-9 0 -16 -7t-7 -16z" />
    <glyph glyph-name="uniE627" unicode="&#xe627;" 
d="M95 41q0 -46 56.5 -85t154.5 -61.5t213 -22.5t212.5 22.5t154 61.5t56.5 85q0 53 -76 96q-58 -33 -149.5 -52.5t-197.5 -19.5t-198 19.5t-150 52.5q-76 -43 -76 -96zM95 269q0 -45 56.5 -84t154.5 -61.5t213 -22.5t212.5 22.5t154 61.5t56.5 84q0 53 -76 97
q-58 -34 -149.5 -53.5t-197.5 -19.5t-198 19.5t-150 53.5q-76 -44 -76 -97zM95 498q0 -46 56.5 -84.5t154.5 -61t213 -22.5t212.5 22.5t154 61t56.5 84.5q0 53 -76 97q-58 -34 -149.5 -53.5t-197.5 -19.5t-198 19.5t-150 53.5q-76 -44 -76 -97zM82 727q0 -46 56.5 -84.5
t154 -61.5t213 -23t213 23t154 61.5t56.5 84.5t-56.5 84.5t-154.5 61.5t-213 23t-212.5 -23t-154 -61.5t-56.5 -84.5z" />
    <glyph glyph-name="uniE628" unicode="&#xe628;" 
d="M966 -128q-6 120 -68 218.5t-164 154.5t-222 56t-222 -56t-164 -154.5t-68 -218.5h42q54 117 165 187.5t247 70.5t246.5 -70.5t165.5 -187.5h42zM252 632q0 -109 76 -186.5t184 -77.5t184 77.5t76 186.5t-76 186.5t-184 77.5t-184 -77.5t-76 -186.5z" />
    <glyph glyph-name="uniE629" unicode="&#xe629;" 
d="M238 697h317v-57h-317v57zM238 498h462v-57h-462v57zM238 327h462v-57h-462v57zM238 100h462v-57h-462v57zM93 896v-1024h838v1024h-838z" />
    <glyph glyph-name="uniE62A" unicode="&#xe62a;" 
d="M247 -69q0 -23 17 -38.5t41 -15.5h412q24 0 41 15.5t17 38.5v44q0 22 -17 38t-41 16h-412q-24 0 -41 -16t-17 -38v-44zM775 667q0 24 -17 41t-41 17h-412q-24 0 -41 -17t-17 -41v-242q0 -24 17 -41t41 -17h412q24 0 41 17t17 41v242zM976 482q0 31 -23 53.5t-54 22.5h-35
q-24 0 -38.5 -14.5t-14.5 -43.5v-107q0 -23 -17 -40t-41 -17h-483q-24 0 -41 17t-17 40v106q0 59 -53 59h-36q-32 0 -54.5 -22.5t-22.5 -53.5v-477q0 -32 22.5 -54t54.5 -22h54q35 0 35 39v37q0 24 17 41t40 17h483q24 0 41 -17t17 -41v-45q0 -16 7 -23.5t24 -7.5h58
q31 0 54 22t23 54v477zM976 482z" />
    <glyph glyph-name="uniE62B" unicode="&#xe62b;" 
d="M-91 891zM902 4q4 -15 7 -38.5t3 -47t-3 -44.5q-3 -11 -6 -19t-6 -14q-3 -4 -10 -7.5t-18 -7t-25 -7t-30.5 -6.5t-35.5 -6t-40 -5q-41 -6 -83 -10q-42 -3 -81 -5t-68 -2h-25q-3 0 -7 1t-9 1h-8q-5 0 -10 0.5t-9 0.5q-13 0 -26.5 1t-26.5 2.5t-27 1.5q-8 1 -16.5 1.5
t-16 1t-16 1.5t-16.5 2t-16.5 2t-16 1.5t-15 2t-15 2.5t-14.5 1.5t-13 1.5q-34 6 -57 10.5t-28 10.5q-10 7 -16 48.5t5 106.5q5 37 29.5 56.5t57 31.5t67.5 20.5t61 25.5q7 4 13 8.5t11 8.5t8 9q6 5 10 11t7 12q4 13 4 25v29q-2 25 -15.5 38t-30.5 27q-9 7 -15 19.5
t-12 25.5q-2 7 -4.5 14.5t-4.5 17.5l-7 7l-7 15q-5 9 -10.5 26t-6.5 32q-1 3 -1 5v8q0 2 0.5 5t0.5 5q1 12 6 20q0 20 1 39l3 38q2 16 5.5 33t8.5 36q10 37 32 66q20 27 43 45.5t47.5 28.5t49 13.5t48.5 3.5q12 -2 22.5 -3t17.5 -3q16 -4 26 -10t18 -13q2 -2 4.5 -5t4.5 -5
l5 -5h21q5 0 9.5 -0.5t9 -2t9.5 -4t10 -6.5q8 -8 20 -22q11 -17 20.5 -34.5t15.5 -36.5q12 -39 18 -74l4 -40q2 -20 3 -39q1 -6 2 -14q1 -4 1.5 -8.5t0.5 -9.5q0 -12 -2 -28q-1 -11 -2 -19t-4 -15q-5 -12 -9 -19q-6 -7 -13 -11q-4 -17 -10 -31q-1 -4 -2.5 -7t-3 -6.5
t-2.5 -6.5t-3 -6q-6 -12 -15 -19q-18 -15 -30 -26t-17 -35q-3 -16 -2 -31t8 -31t23 -30t44 -25q25 -9 56 -17q9 -4 19 -7t19.5 -6t18.5 -6q27 -11 49.5 -27.5t30.5 -42.5h1zM552 41q2 6 0 13t-8 14q-3 3 -6 7l-7 7h-51q-3 -3 -6 -7t-6 -7q-4 -6 -6.5 -12.5t1.5 -11.5
q7 -16 12 -27t12 -17q-1 -4 -1.5 -8t-1.5 -9.5t-4 -11.5q-3 -17 -7.5 -36.5t-6.5 -36.5t-2 -25l4 -13q5 -9 11.5 -16.5t13.5 -13.5t12.5 -6t13.5 6q4 3 7 6l7 7q7 7 12.5 15.5t5.5 12.5q0 7 -4 23q-1 6 -2 11t-2.5 11.5t-2.5 12.5q-2 11 -4 20t-4 19q-1 6 -3 11t-3 10t-2 8
q2 2 4.5 4t4 5t4.5 7q5 10 15 28z" />
    <glyph glyph-name="uniE62C" unicode="&#xe62c;" 
d="M116.5 273q-48.5 0 -82.5 32.5t-34 78.5t34 78.5t82.5 32.5t82.5 -32.5t34 -78.5t-34 -78.5t-82.5 -32.5zM512 273q-48 0 -82 32.5t-34 78.5t34 78.5t82 32.5t82 -32.5t34 -78.5t-34 -78.5t-82 -32.5zM907.5 273q-48.5 0 -82.5 32.5t-34 78.5t34 78.5t82.5 32.5
t82.5 -32.5t34 -78.5t-34 -78.5t-82.5 -32.5z" />
    <glyph glyph-name="uniE62D" unicode="&#xe62d;" horiz-adv-x="1025" 
d="M352 205q-16 -3 -35 -5t-30 -2l-11 -1q0 2 2 10.5t2.5 11.5t2.5 10.5t3.5 11t4 10.5t5 11t6.5 9t8 9l112 22zM317 638l44 -4v-10h-55v-2q0 -32 -23 -55t-55.5 -23t-55.5 23t-23 55v6h-15q3 36 29.5 60.5t62.5 24.5q34 0 59.5 -21.5t31.5 -53.5zM3 317l12 -369h145v42
l-59 7l46 299l75 90l76 -36l81 -10q-64 -16 -120 -38l-51 -135l-35 -5l21 -133h198q9 -13 19 -23q58 -57 139.5 -57t138.5 57q11 11 20 23h312v367h-50q18 10 50 30v93l-192 -117q-168 249 -377 420q0 -1 -8 -5.5t-13 -6.5l295 -419q-168 -15 -271 -35l3 17l-137 46
l-120 105l-116 2zM617 211.5q28 -27.5 28 -67t-28 -67t-67 -27.5t-66.5 27.5t-27.5 67t27.5 67t66.5 27.5t67 -27.5z" />
    <glyph glyph-name="uniE62E" unicode="&#xe62e;" 
d="M0 274q0 -49 33.5 -83.5t80.5 -34.5t80.5 34.5t33.5 83.5q0 25 -10 47h2l-106 291l-106 -291h1q-9 -22 -9 -47zM796 274q0 -49 33.5 -83.5t80.5 -34.5t80.5 34.5t33.5 83.5q0 25 -10 47h2l-106 291l-106 -291h2q-10 -22 -10 -47zM288 171q0 -94 67 -160.5t161 -66.5
t160.5 66.5t66.5 160.5q0 48 -19 92h4l-212 561l-213 -561h4q-19 -44 -19 -92z" />
    <glyph glyph-name="uniE62F" unicode="&#xe62f;" 
d="M372 579h47l-116 -341h-47l-116 341h46l87 -263q5 -13 7 -30h1q1 13 7 31zM535 579v-49h-23v-244h23v-48h-93v48h23v244h-23v49h93zM838 579v-341h-55l-145 270q-6 11 -10 22h-1q1 -15 1 -48v-244h-46v341h70l129 -268l11 -25h1q-2 13 -2 51v242h47zM0 701v-634h1024v634
h-1024z" />
    <glyph glyph-name="uniE630" unicode="&#xe630;" 
d="M43 384q0 106 75 181t181 75t181 -75t75 -181t-75 -181t-181 -75t-181 75t-75 181zM640 725.5q0 70.5 50 120.5t120.5 50t120.5 -50t50 -120.5t-50 -120.5t-120.5 -50t-120.5 50t-50 120.5zM640 42.5q0 70.5 50 120.5t120.5 50t120.5 -50t50 -120.5t-50 -120.5
t-120.5 -50t-120.5 50t-50 120.5z" />
    <glyph glyph-name="uniE631" unicode="&#xe631;" 
d="M0 452h1024v-136h-1024v136zM444 -128v1024h136v-1024h-136z" />
    <glyph glyph-name="uniE632" unicode="&#xe632;" 
d="M1024 469q0 116 -68.5 214.5t-186.5 155.5t-257 57t-257 -57t-186.5 -155.5t-68.5 -214.5t68.5 -214t186.5 -155t257 -57v-171l281 240q106 59 168.5 153t62.5 204zM896 597q0 64 -47 121q56 -51 87 -115t31 -134q0 -98 -60 -183t-165 -135.5t-230 -50.5t-230 50.5
t-165 135.5t-60 183q0 66 28 128q0 -69 54.5 -128t148 -93.5t203.5 -34.5t203.5 34.5t147.5 93.5t54 128z" />
    <glyph glyph-name="uniE633" unicode="&#xe633;" 
d="M0 384q0 139 68.5 257t186.5 186.5t257 68.5t257 -68.5t186.5 -186.5t68.5 -257t-68.5 -257t-186.5 -186.5t-257 -68.5t-257 68.5t-186.5 186.5t-68.5 257zM631 605l-11 -20h-216l-14 20h-106l9 -20h-40v-181h52l-52 -239h117l54 239h304q48 0 43 47v134h-43l12 20h-109z
M703 385h-109v-181q-1 -21 10 -30.5t34 -8.5h133v45h-46q-13 -2 -19 4t-3 19v152zM642 449h-280v90h300v-68q5 -26 -20 -22z" />
    <glyph glyph-name="uniE634" unicode="&#xe634;" 
d="M0 384q0 139 68.5 257t186.5 186.5t257 68.5t257 -68.5t186.5 -186.5t68.5 -257t-68.5 -257t-186.5 -186.5t-257 -68.5t-257 68.5t-186.5 186.5t-68.5 257zM343 269h-16v290h35v-307h35q23 -2 34 9t9 35v306h-187v-344h13l-13 -80h72zM474 602l-16 -60h204v-364h66
q24 -2 34.5 7.5t8.5 31.5v368h-197l4 17h-104zM462 178h152q39 -2 35 32v177h-69v-154q3 -19 -16 -16h-11l18 304h-88zM371 178h75l-16 71h-74z" />
    <glyph glyph-name="uniE635" unicode="&#xe635;" 
d="M367 880h-275q-37 0 -64 -27t-27 -65v-274q0 -38 27 -65t64 -27h275q37 0 64 27t27 65v274q0 38 -27 65t-64 27zM367 330h-275q-38 0 -64.5 -26.5t-26.5 -64.5v-275q0 -38 27 -65t64 -27h275q37 0 64 27t27 65v274q0 38 -27 65t-64 27zM916 880h-274q-38 0 -65 -27
t-27 -65v-274q0 -38 27 -65t65 -27h274q38 0 65 27t27 65v274q0 38 -27 65t-65 27zM916 330h-274q-38 0 -65 -26.5t-27 -64.5v-275q0 -38 27 -65t65 -27h274q38 0 65 27t27 65v274q0 38 -27 65t-65 27z" />
    <glyph glyph-name="uniE636" unicode="&#xe636;" 
d="M340 18q-20 -20 -48.5 -20t-48.5 20l-98 98q-20 20 -20 48.5t20 48.5l245 245q-39 24 -86.5 18.5t-81.5 -39.5l-175 -175q-40 -40 -40 -97.5t40 -97.5l147 -147q40 -40 97.5 -40t97.5 40l175 175q34 34 39.5 81.5t-18.5 86.5zM984 710l-147 147q-40 40 -97.5 40
t-97.5 -40l-175 -175q-34 -34 -39.5 -81.5t18.5 -86.5l245 245q20 20 48.5 20t48.5 -20l98 -98q20 -20 20 -48.5t-20 -48.5l-245 -245q40 -24 87 -18.5t81 39.5l175 175q40 40 40 97.5t-40 97.5zM328 226l25 -25q15 -15 36.5 -15t36.5 15l277 277q15 15 15 36.5t-15 37.5
l-24 24q-16 15 -37.5 15t-36.5 -15l-277 -277q-15 -15 -15 -36.5t15 -36.5zM328 226z" />
    <glyph glyph-name="uniE637" unicode="&#xe637;" 
d="M512 868q-98 0 -188 -38.5t-154.5 -103t-103 -154.5t-38.5 -188t38.5 -188t103 -154.5t154.5 -103t188 -38.5t188 38.5t154.5 103t103 154.5t38.5 188t-38.5 188t-103 154.5t-154.5 103t-188 38.5zM512 -44q-116 0 -214.5 57.5t-156 156t-57.5 214.5t57.5 214.5t156 156
t214.5 57.5t214.5 -57.5t156 -156t57.5 -214.5t-57.5 -214.5t-156 -156t-214.5 -57.5zM716 492q10 16 4.5 37.5t-22 29.5t-43.5 -8q-23 -15 -79 -75.5t-58 -92.5q0 -19 11.5 -34.5t26.5 -25.5t31 -27.5t22 -38.5q4 -14 5.5 -31.5t0.5 -31.5t-4 -34t-5.5 -29.5t-7 -28
t-5.5 -20.5q17 9 36 22.5t46.5 37t56.5 59.5t53 78q6 13 -10.5 36t-37 46t-30.5 58t9 73zM406 691q-118 -69 -189 -207q27 13 74.5 12.5t93 -7t82 -6.5t41.5 14q15 105 -14.5 152t-87.5 42z" />
    <glyph glyph-name="uniE638" unicode="&#xe638;" 
d="M649 718l203 -204l-474 -474l-204 203zM23 -75l83 250l204 -203l-251 -83q-17 -6 -29.5 6.5t-6.5 29.5zM920 582l-204 203l68 68q28 28 68 28t68 -28l67 -68q29 -28 29 -67.5t-29 -67.5z" />
    <glyph glyph-name="uniE639" unicode="&#xe639;" horiz-adv-x="1025" 
d="M709 752q39 0 66 -27t27 -65.5t-27 -65.5t-65.5 -27t-65.5 27t-27 65.5t27 65.5t65 27zM263 678q34 1 58.5 -24t24.5 -59q0 -35 -24.5 -57.5t-61.5 -22.5q-17 0 -30.5 5t-23.5 12t-11 7q-29 12 -58 39l20 -4l-1 1q-24 14 -38 33q-3 4 -1 4q1 0 4 -1q3 -2 11 -7.5
t13.5 -7.5t12.5 -2q3 0 -13 13q-11 10 -14 14t-1 4t13 -6q27 -14 37 -14q4 29 25.5 50.5t57.5 22.5zM1 185q-6 72 29 141t100 113.5t140 45.5q-107 -26 -148 -91q113 109 271 74q-60 -1 -109 -15t-80 -37.5t-51 -48.5t-31 -53q69 84 146 119.5t172 9.5q-130 -9 -200.5 -76
t-65.5 -166q6 -82 64.5 -128.5t155.5 -45.5q177 3 254 209q6 -79 -32.5 -152.5t-114 -121.5t-167.5 -53q-146 0 -235 75t-98 201v0zM453 78q64 -11 109 33q49 50 58 87q-77 -81 -167 -120zM370 155h66q23 64 62.5 109t82.5 63t85.5 19.5t76.5 -16t49 -47.5q25 -74 -0.5 -151
t-93 -143.5t-175 -121t-240.5 -86.5q119 1 309 74q-22 -20 -59.5 -36t-62.5 -23t-77 -20q100 5 183 30.5t196 93.5q-68 -52 -160 -97q90 33 162 75t129 97t88 126.5t32 154.5q-1 64 -26.5 117.5t-66.5 87t-94.5 51t-110.5 14.5t-115.5 -28t-107.5 -71q4 23 52.5 53.5
t113.5 55.5q-72 -10 -144.5 -55.5t-119 -112.5t-39.5 -131q17 -17 18.5 -29.5t-13.5 -52.5z" />
    <glyph glyph-name="uniE63A" unicode="&#xe63a;" 
d="M956 555q-6 25 -24.5 39.5t-44.5 14.5h-376h-375q-10 0 -18 -2q-23 -4 -38.5 -23.5t-15.5 -45.5v-476q0 -8 1 -13q4 -26 23 -42t46 -16h754q30 0 49.5 20t19.5 50v239v239q0 9 -1 16zM545 132q-3 -31 -30 -47q-22 -13 -53 -13h-236q-27 0 -45.5 17t-22.5 44q-4 32 19 68
q42 64 116 86l3 1q-45 21 -62.5 64.5t-5.5 85.5q12 39 45 63.5t74 26.5q41 1 74.5 -23t47.5 -64q13 -38 -2.5 -83.5t-63.5 -69.5q18 -5 29 -9q69 -29 99 -91q16 -31 14 -56zM565 451q3 1 8 1h137h138q10 0 15.5 -5.5t4.5 -14.5q-1 -14 -14 -17h-8h-150h-122q-6 0 -10 1
q-13 3 -13 17t14 18zM868 338q0 -14 -13 -17q-4 -1 -9 -1h-136h-138q-19 1 -21 17q-1 7 3 13t11 7q4 1 8 1h274q10 0 16 -5.5t5 -14.5zM868 243q-1 -15 -16 -16q-2 -1 -6 -1h-137h-137q-19 0 -21 18q0 7 4.5 12.5t11.5 6.5q3 1 6 1h272q8 0 11 -1q14 -5 12 -20zM345 109
h-117q-15 0 -22 7q-16 16 -10 39q4 17 23 40q39 48 95 59q105 19 170 -60q18 -22 23 -50q4 -20 -14 -28q-13 -6 -33 -7h-115zM438 402q0 -37 -26 -63t-62.5 -26t-63 26t-26.5 62.5t26.5 63t63 26.5t62.5 -26t26 -63z" />
    <glyph glyph-name="uniE63B" unicode="&#xe63b;" 
d="M303 773q97 -66 136 -105q2 1 6 2.5t17.5 4.5t29 4.5t41 -0.5t53.5 -9q6 2 16.5 6t36.5 19t44.5 32t31 44.5t5.5 57.5q-1 -3 -4 -7.5t-15.5 -13.5t-29.5 -13q-1 7 -3 18.5t-11.5 37t-23.5 38.5l-5 3q-3 1 -13.5 2t-22.5 -1t-30 -11.5t-37 -26.5q-2 4 -8 10.5t-27.5 17.5
t-47.5 11q-5 -4 -13 -11.5t-20 -32.5t-10 -51l-7 3q-5 1 -16.5 2t-22.5 -1t-25 -9t-25 -21zM457 347q0 -9 8.5 -19t31.5 -15v64q-16 0 -28 -8t-12 -22zM538 219v-78q18 4 30 12q12 7 12 25q0 14 -9 23q-10 8 -33 18zM876 211q-57 235 -138 336.5t-224 101.5q-45 0 -83 -11.5
t-67.5 -30t-56.5 -49.5t-47 -63.5t-40 -79.5t-35 -90t-33 -102q-24 -82 -2 -146t77.5 -108t130.5 -67t156 -23q65 0 124.5 13.5t110 39.5t84 66t46.5 93t-3 120zM648 140q-12 -23 -40 -39q-27 -17 -70 -21v-45h-41v45q-25 3 -57 13q-32 11 -57 26v74q16 -12 35 -23
q18 -11 38 -18q20 -8 41 -10v87q-49 11 -76 29q-26 18 -34.5 37t-8.5 40q0 19 9.5 40.5t36 39.5t73.5 23v23h41v-23q29 -4 54 -13t54 -26v-77q-19 14 -47 30q-29 15 -61 22v-71q56 -18 89 -45q33 -26 33 -73q0 -23 -12 -45z" />
    <glyph glyph-name="uniE63C" unicode="&#xe63c;" 
d="M39 545h299q15 0 25.5 -11t11.5 -26l14 -184q-26 -20 -46 -36.5t-42 -36.5t-38.5 -38t-32.5 -40.5t-27 -44t-20 -47.5t-12.5 -52.5t-3 -57.5t5.5 -64l-171 -4v605q0 15 11 26t26 11v0zM437 806q-21 -32 -32.5 -64.5t-12.5 -55.5t0.5 -41.5t4.5 -27.5l3 -9q-1 2 -3 4.5
t-7.5 8t-10.5 7.5t-11 -2.5t-10 -17.5q-3 -9 -3.5 -17t-0.5 -14t3.5 -14t5.5 -13t9.5 -14.5t12 -14.5t15.5 -18t17 -20q35 -42 58.5 -67.5t61 -58.5t65.5 -43q67 -24 220 157q72 86 40 137q-7 11 -13.5 11t-9.5 -6l-3 -5q1 5 2 13.5t2 33t-2 47.5t-12 51t-25 49
q-46 59 -119 80.5t-141.5 0.5t-103.5 -77zM476 295q-258 -92 -258 -361q0 -21 80.5 -37t196.5 -20t232.5 1.5t200 30t87.5 63.5q9 78 -81 197q-66 87 -123 119q-36 20 -44 -1l-89 -205l-32 91q3 16 17 47q12 23 10.5 37t-22.5 28q-22 14 -46 6.5t-33 -30.5q-5 -13 0 -25.5
t13 -23.5t8 -18q0 -8 -6 -35t-12 -50l-6 -22l-1 -5q-5 1 -27 48q-14 29 -30.5 70.5t-25.5 67.5t-9 27zM103 362v-36h180v36h-180zM103 425v-36h180v36h-180z" />
    <glyph glyph-name="uniE63D" unicode="&#xe63d;" 
d="M427 555h170v-683h-170v683zM853 896h171v-1024h-171v1024zM0 683h171v-811h-171v811z" />
    <glyph glyph-name="uniE63E" unicode="&#xe63e;" horiz-adv-x="1025" 
d="M740 277q0 27 19 46.5t46.5 19.5t46.5 -19.5t19 -46.5t-19 -46.5t-46.5 -19.5t-46.5 19.5t-19 46.5zM107 277q0 27 19.5 46.5t46.5 19.5t46.5 -19.5t19.5 -46.5t-19.5 -46.5t-46.5 -19.5t-46.5 19.5t-19.5 46.5zM172 437q1 5 3 13t15 28t32.5 35t58 26.5t88.5 10.5
q145 -4 233 -92l18 -21h-448zM274 247h437q11 -30 38 -48.5t59.5 -18.5t59.5 18.5t38 48.5h54q3 0 6.5 0.5t14 4t18.5 9.5t15.5 19t9.5 31q5 51 -68.5 90.5t-228.5 41.5q-6 0 -18.5 2t-50 20t-74.5 51q-35 29 -75.5 47t-62.5 22l-23 3h-180q-6 -1 -17.5 -3t-43.5 -12.5
t-61 -25t-63 -42t-58 -62.5v-118q0 -3 0.5 -7t4.5 -15.5t11 -21.5t23.5 -20.5t38.5 -16.5q11 -30 37.5 -47t60.5 -17q33 0 59.5 18.5t38.5 48.5z" />
    <glyph glyph-name="uniE63F" unicode="&#xe63f;" 
d="M512 810l140 -273l311 -69l-205 -225l40 -285l-286 115l-286 -115l40 285l-205 225l311 69zM512 870l-171 -302l-341 -69l236 -256l-40 -345l316 144l316 -144l-40 345l236 256l-341 69z" />
    <glyph glyph-name="uniE640" unicode="&#xe640;" 
d="M775 896l-180 -319l-359 -72l248 -269l-42 -364l333 152l13 -6v855z" />
    <glyph glyph-name="uniE641" unicode="&#xe641;" horiz-adv-x="1025" 
d="M171 459q10 8 26.5 19.5t57.5 30t70 17.5q-4 1 -11 2t-27 0t-38 -6.5t-40.5 -21.5t-37.5 -41zM24 439q6 5 18.5 13.5t52.5 30t81.5 36.5t104 25t123.5 5.5t135 -32t143 -78.5q-6 6 -17.5 16.5t-49.5 35.5t-78.5 43t-102 30t-123 6.5t-138 -38t-149.5 -93.5zM696 432
q58 -11 120 -20q7 -1 32.5 -3.5t37 -4.5t33 -10t33.5 -20t25 -34.5t21 -53.5v-9q-10 -23 -87 -31q3 -1 8.5 -1.5t21 -0.5t28.5 3t27.5 11t21.5 21q6 10 6 22.5t-5.5 25.5t-16.5 26.5t-29.5 25.5t-41.5 22t-54 16.5t-67 8.5zM17 432q2 -29 -14 -93q-10 -45 12 -64t69 -23
q-7 3 -17 8t-28.5 19t-21.5 27q-3 10 3 56.5t-3 69.5zM259 246q285 -4 441 -7q36 0 28 2q-33 10 -220 16q-202 7 -249 -11zM749 272.5q0 27.5 20 47t47.5 19.5t47.5 -19.5t20 -47t-20 -47t-47.5 -19.5t-47.5 19.5t-20 47zM739 272.5q0 -31.5 22.5 -54t55 -22.5t55 22.5
t22.5 54t-22.5 54t-55 22.5t-55 -22.5t-22.5 -54zM104 272.5q0 27.5 20 47t47.5 19.5t47.5 -19.5t20 -47t-20 -47t-48 -19.5t-47.5 19.5t-19.5 47zM94 272.5q0 -31.5 22.5 -54t54.5 -22.5t55 22.5t23 54t-23 54t-55 22.5t-54.5 -22.5t-22.5 -54z" />
    <glyph glyph-name="uniE642" unicode="&#xe642;" 
d="M0 384l341 -372q7 10 18.5 29t50 77t80 114t104.5 132.5t127 143t144.5 134t158.5 114.5q-12 -4 -32.5 -11.5t-82 -34t-119.5 -57t-132 -79.5t-133 -102.5t-110 -125.5t-74 -148l-170 372l-37 -40z" />
    <glyph glyph-name="uniE643" unicode="&#xe643;" horiz-adv-x="1025" 
d="M171 459q10 8 26.5 19.5t57.5 30t70 17.5q-4 1 -11 2t-27 0t-38 -6.5t-40.5 -21.5t-37.5 -41zM24 439q6 5 18.5 13.5t52.5 30t81.5 36.5t104 25t123.5 5.5t135 -32t143 -78.5q-6 6 -17.5 16.5t-49.5 35.5t-78.5 43t-102 30t-123 6.5t-138 -38t-149.5 -93.5zM696 432
q58 -11 120 -20q7 -1 32.5 -3.5t37 -4.5t33 -10t33.5 -20t25 -34.5t21 -53.5v-9q-10 -23 -87 -31q3 -1 8.5 -1.5t21 -0.5t28.5 3t27.5 11t21.5 21q6 10 6 22.5t-5.5 25.5t-16.5 26.5t-29.5 25.5t-41.5 22t-54 16.5t-67 8.5zM17 432q2 -29 -14 -93q-10 -45 12 -64t69 -23
q-7 3 -17 8t-28.5 19t-21.5 27q-3 10 3 56.5t-3 69.5zM259 246q285 -4 441 -7q36 0 28 2q-33 10 -220 16q-202 7 -249 -11zM749 272.5q0 27.5 20 47t47.5 19.5t47.5 -19.5t20 -47t-20 -47t-47.5 -19.5t-47.5 19.5t-20 47zM739 272.5q0 -31.5 22.5 -54t55 -22.5t55 22.5
t22.5 54t-22.5 54t-55 22.5t-55 -22.5t-22.5 -54zM104 272.5q0 27.5 20 47t47.5 19.5t47.5 -19.5t20 -47t-20 -47t-47.5 -19.5t-47.5 19.5t-20 47zM94 272.5q0 -31.5 22.5 -54t54.5 -22.5t55 22.5t23 54t-23 54t-55 22.5t-54.5 -22.5t-22.5 -54zM189 434q271 -4 418 -6
q34 -1 27 -3q-29 -9 -198 -11q-200 -3 -247 20z" />
    <glyph glyph-name="uniE644" unicode="&#xe644;" 
d="M512 870l171 -302l341 -69l-236 -256l40 -345l-316 144l-316 -144l40 345l-236 256l341 69z" />
    <glyph glyph-name="uniE645" unicode="&#xe645;" 
d="M1016 67q4 10 4 19v564q0 8 -4 18l-331 -283zM512 316l131 107l333 285q-10 3 -17 3h-894q-8 0 -17 -3l333 -285zM959 25q7 0 16 3l-334 321l-129 -105l-129 105l-334 -321q9 -3 16 -3h894zM7 668q-3 -10 -3 -18v-564q0 -9 4 -19l331 317z" />
    <glyph glyph-name="uniE646" unicode="&#xe646;" 
d="M513 -225q-15 19 -39 50.5t-85.5 121t-108.5 167.5t-85.5 167.5t-38.5 144.5q0 96 47.5 177t130 128.5t179.5 47.5t179 -47.5t130 -128.5t48 -177q0 -55 -37 -142t-89 -172.5t-105 -163t-89 -125.5t-37 -48zM509 576q-63 0 -107.5 -44t-44.5 -106.5t44.5 -106.5
t107.5 -44t107.5 44t44.5 106.5t-44.5 106.5t-107.5 44z" />
    <glyph glyph-name="uniE647" unicode="&#xe647;" 
d="M1015 118l-4 6l-11 13q-12 15 -44 41q-47 38 -85 64l-51 33l-23 11q-18 9 -39 1q-16 -5 -24 -19l-18 -25q-4 -7 -9 -16l-13 -25q-9 -19 -16 -30q-8 -15 -22.5 -26t-34 -14.5t-38.5 7.5q-110 62 -184 132q-107 103 -144 185q-9 13 -2 39t29 37q14 7 36.5 16t33.5 15
q8 5 16 9.5t20 12.5l4 3l4 4l3 3q21 19 10 46l-3 8q-15 35 -38 75q-19 31 -44 65q-11 14 -22.5 26t-19.5 19t-15 12t-11 7l-4 2q-9 5 -14 7q-25 11 -53 -1q-17 -6 -33.5 -16.5t-23.5 -16t-28 -22.5q-48 -39 -74.5 -88t-20.5 -93q11 -76 94.5 -212t195 -241.5t254 -185
t223.5 -89.5q47 -6 90.5 14.5t90.5 63.5q41 38 60 78q7 15 8.5 32t-6.5 33z" />
    <glyph glyph-name="uniE648" unicode="&#xe648;" 
d="M931 13l-119 154q59 59 92.5 137t33.5 165q0 116 -57 214t-155.5 155t-214.5 57t-214 -57t-155 -155t-57 -214q0 -89 34.5 -168.5t96.5 -139.5l-117 -149q-13 -13 -9.5 -21t22.5 -7l108 -3l24 -86q3 -19 17.5 -22.5t25.5 11.5l120 172q53 -14 104 -14q55 0 112 16
l120 -173q11 -15 25.5 -11.5t17.5 22.5l24 86l109 3q18 -2 22 6.5t-10 21.5zM383 469q0 53 37.5 90.5t90.5 37.5t90.5 -37.5t37.5 -90.5t-37.5 -90.5t-90.5 -37.5t-90.5 37.5t-37.5 90.5z" />
    <glyph glyph-name="uniE649" unicode="&#xe649;" 
d="M512 56q-57 0 -116 17.5t-107.5 45.5t-93.5 62.5t-79 68.5t-59.5 63.5t-38.5 48.5t-13 22t13 22t38.5 48.5t59.5 63.5t79 68.5t93.5 62.5t107.5 45.5t116 17.5t116 -18t108 -47.5t94 -64.5t79.5 -70t59.5 -63.5t38.5 -47t11.5 -17.5l-14 -18q-14 -17 -39.5 -46t-59 -64
t-78.5 -70.5t-93.5 -64.5t-107 -47t-115.5 -18zM510 607q-89 0 -152 -64t-63 -154t63 -154t152 -64t152 64t63 154t-63 154t-152 64zM509 293q-42 0 -72 30.5t-30 73t30 73t72 30.5t72 -30.5t30 -73t-30 -73t-72 -30.5z" />
    <glyph glyph-name="uniE64A" unicode="&#xe64a;" 
d="M520.5 893q-103.5 0 -197.5 -40.5t-162 -108.5t-108.5 -162.5t-40.5 -197.5t40.5 -197.5t108.5 -162.5t162 -108.5t197.5 -40.5t198 40.5t162.5 108.5t108.5 162.5t40.5 197.5t-40.5 197.5t-108.5 162.5t-162.5 108.5t-198 40.5zM767 188h-373l5 -5q15 -15 17.5 -31.5
t-11.5 -31.5q-15 -14 -32 -12t-32 18l-69 69q-8 8 -12 16q-1 0 -1 1q-10 20 0 38q11 25 45 25h463q21 0 35 -12t14 -31.5t-14 -31.5t-35 -12zM812 478q-12 -25 -45 -25h-463q-22 0 -36 12t-14 31.5t14 31.5t36 12h372l-5 5q-15 15 -17 31.5t11 31.5q16 14 32.5 12t31.5 -18
l70 -69q7 -8 12 -16v-1q11 -20 1 -38z" />
    <glyph glyph-name="uniE64B" unicode="&#xe64b;" horiz-adv-x="1025" 
d="M641 249q0 23 16.5 39t40 16t40.5 -16t17 -39t-17 -39.5t-40.5 -16.5t-40 16.5t-16.5 39.5zM76 249q0 23 16.5 39t40 16t40 -16t16.5 -39t-16.5 -39.5t-40 -16.5t-40 16.5t-16.5 39.5zM245 416h340l75 -74h-490zM5 129q0 -16 12 -26q46 -41 125 -3q19 9 19 23v23
q0 6 8 10t19 4h199h56h195q11 0 19 -4t8 -10v-23q0 -14 19 -23q81 -39 129 3q12 10 12 26l5 179q0 14 -12 26l-125 105q-12 12 -40 12h-210h-56h-210q-28 0 -40 -12l-125 -105q-12 -13 -12 -26zM859 473.5q0 25.5 18 44t43.5 18.5t44 -18.5t18.5 -44t-18.5 -43.5t-44 -18
t-43.5 18t-18 43.5zM577 640h260l57 -70h-375zM833 384h44q9 0 15 -4.5t6 -9.5v-24q0 -16 14 -25q63 -40 99 4q9 10 9 26l4 187q0 14 -9 26l-96 110q-9 13 -30 13h-161h-42h-161q-22 0 -31 -13l-96 -110q-9 -12 -9 -26l1 -44h44q7 19 23 30.5t36 11.5t36 -11.5t23 -30.5h112
q23 0 52 -11.5t46 -28.5z" />
    <glyph glyph-name="uniE64C" unicode="&#xe64c;" horiz-adv-x="1025" 
d="M67 350.5q0 41.5 29 71t70.5 29.5t71 -29.5t29.5 -71t-29.5 -71.5t-71 -30t-70.5 30t-29 71.5zM757 350.5q0 41.5 29.5 71t71 29.5t70.5 -29.5t29 -71t-29 -71.5t-70.5 -30t-71 30t-29.5 71.5zM303 622h418l94 -114h-606zM6 150q0 -27 15 -44q57 -70 155 -5q9 6 15.5 18
t6.5 22v39q0 10 10 16.5t24 6.5h246h68h241q14 0 24 -6.5t10 -16.5v-39q0 -10 6.5 -22t16.5 -18q100 -67 159 5q15 17 15 44l6 305q0 23 -14 43l-155 180q-6 8 -20.5 14t-28.5 6h-260h-68h-260q-14 0 -28.5 -6t-20.5 -14l-155 -180q-14 -20 -14 -43z" />
    <glyph glyph-name="uniE64D" unicode="&#xe64d;" 
d="M-91 869zM894 17q5 -15 8 -39q2 -10 2.5 -22t0.5 -23.5t-1 -23t-2 -21.5q-4 -21 -11 -31q-1 -2 -3.5 -4t-6 -3.5t-8 -3.5t-9.5 -4q-24 -7 -57.5 -14t-75.5 -14q-20 -3 -41.5 -6t-41.5 -5l-42 -5q-20 -2 -39 -3q-39 -4 -67 -4q-21 0 -46.5 2t-55.5 5t-58 6.5t-56 7.5
q-56 10 -99 19.5t-51 15.5q-4 4 -8.5 16t-6.5 32q-6 40 3 103q6 37 30 56q13 9 26.5 16.5t29.5 12.5q32 12 65.5 20t59.5 26q19 12 30 21q10 12 15 21q6 11 7 22t0 24l-85 13q-17 12 -32 37q-11 21 -21 57t-10 92q0 48 4.5 102t24 102.5t57.5 87.5t103 58q38 13 75 13
q11 1 21 1.5t21 0.5q48 0 87 -20t67 -52q14 -16 25.5 -33.5t22.5 -37.5q5 -11 9 -20l8 -22q4 -9 7.5 -19t6.5 -21q11 -41 16 -78.5t3 -64.5q-3 -42 -13 -74.5t-22 -56.5q-11 -27 -28 -49l-98 -16q-1 -13 2 -26.5t10 -26.5q14 -26 61 -46q12 -4 25.5 -8t27.5 -8l29 -9
q14 -4 28 -9q27 -10 48 -25.5t30 -41.5h-1z" />
    <glyph glyph-name="uniE64E" unicode="&#xe64e;" 
d="M512 851l-164 -284l-339 -69l234 -254l-39 -338l314 138l4 3l-1 794zM512 870zM512 810l140 -273l311 -69l-205 -225l40 -284l-286 114l-286 -114l40 284l-205 225l311 69zM512 870l-171 -302l-341 -69l236 -256l-40 -345l316 144l316 -144l-40 345l236 256l-341 69z
M512 870z" />
    <glyph glyph-name="uniE64F" unicode="&#xe64f;" horiz-adv-x="1025" 
d="M393 588l45 24l9 -212l65 34l25 -42l-89 -46l36 -62l89 46l24 -41l-89 -47l37 -62l-45 -24l-36 63l-89 -47l-24 42l89 46l-37 62l-89 -46l-24 41l78 41l-197 113l67 35l138 -96q9 -6 27 -21l2 1q-3 13 -4 35zM711 583q0 35 25 60t60.5 25t60.5 -25t25 -60t-25 -60
t-60.5 -25t-60.5 25t-25 60zM14 511q-10 -7 -13 -18.5t3 -21.5l303 -528q6 -10 18 -13t22 3l540 319q11 7 20.5 19.5t12.5 23.5l103 401q3 11 -3 21.5t-17 14.5l-395 105q-28 8 -53 -7z" />
    <glyph glyph-name="uniE650" unicode="&#xe650;" 
d="M270 740q-18 0 -30 -12.5t-12 -30.5t12 -30.5t30 -12.5t30.5 12.5t12.5 30.5t-12.5 30.5t-30.5 12.5zM725 740q-17 0 -29.5 -12.5t-12.5 -30.5t12.5 -30.5t29.5 -12.5q18 0 30.5 12.5t12.5 30.5t-12.5 30.5t-30.5 12.5zM725 740q-17 0 -29.5 -12.5t-12.5 -30.5
t12.5 -30.5t29.5 -12.5q18 0 30.5 12.5t12.5 30.5t-12.5 30.5t-30.5 12.5zM270 740q-18 0 -30 -12.5t-12 -30.5t12 -30.5t30 -12.5t30.5 12.5t12.5 30.5t-12.5 30.5t-30.5 12.5zM270 740q-18 0 -30 -12.5t-12 -30.5t12 -30.5t30 -12.5t30.5 12.5t12.5 30.5t-12.5 30.5
t-30.5 12.5zM725 740q-17 0 -29.5 -12.5t-12.5 -30.5t12.5 -30.5t29.5 -12.5q18 0 30.5 12.5t12.5 30.5t-12.5 30.5t-30.5 12.5zM270 740q-18 0 -30 -12.5t-12 -30.5t12 -30.5t30 -12.5t30.5 12.5t12.5 30.5t-12.5 30.5t-30.5 12.5zM725 740q-17 0 -29.5 -12.5t-12.5 -30.5
t12.5 -30.5t29.5 -12.5q18 0 30.5 12.5t12.5 30.5t-12.5 30.5t-30.5 12.5zM725 740q-17 0 -29.5 -12.5t-12.5 -30.5t12.5 -30.5t29.5 -12.5q18 0 30.5 12.5t12.5 30.5t-12.5 30.5t-30.5 12.5zM270 740q-18 0 -30 -12.5t-12 -30.5t12 -30.5t30 -12.5t30.5 12.5t12.5 30.5
t-12.5 30.5t-30.5 12.5zM939 768q0 47 -33.5 80.5t-80.5 33.5h-626q-47 0 -80.5 -33.5t-33.5 -80.5l-85 -768q0 -47 33.5 -80.5t80.5 -33.5h796q47 0 80.5 33.5t33.5 80.5zM755 602q-1 -35 -10.5 -81t-29 -96t-45.5 -92t-64 -69t-81 -27q-47 0 -94.5 39t-81 96t-55.5 118
t-24 107q-41 0 -70 29.5t-29 70.5t29 70t70 29t70.5 -29t29.5 -70q0 -33 -19 -59t-50 -36q1 -40 21 -97t50 -109.5t72 -89.5t81 -37q42 0 80.5 36t62.5 89t38.5 107t16.5 96q-41 1 -69 30t-28 70t29 70t70 29t70.5 -29t29.5 -70q0 -33 -19.5 -59.5t-50.5 -35.5z" />
    <glyph glyph-name="uniE651" unicode="&#xe651;" 
d="M510 812q-139 0 -256 -68t-185.5 -185.5t-68.5 -256.5t68.5 -256.5t185.5 -185.5t256 -68q211 0 360.5 149.5t149.5 360.5q0 139 -68 256t-185.5 185.5t-256.5 68.5zM719 160q14 -13 14 -33t-14 -34t-34 -14t-33 14l-142 141l-141 -141q-14 -14 -34 -14t-34 14t-14 33.5
t14 33.5l141 142l-141 141q-14 14 -14 34t14 34t34 14t34 -14l141 -141l142 141q14 14 33.5 14t33.5 -14t14 -34t-14 -34l-141 -141z" />
    <glyph glyph-name="uniE652" unicode="&#xe652;" horiz-adv-x="1025" 
d="M363 602l82 49v-251l80 47l38 -60l-98 -58l22 -38l97 56l31 -57l-96 -56l41 -74l-76 -43l-42 73l-95 -55l-33 55l96 56l-23 38l-96 -56l-35 57l80 47l-214 119l100 60l167 -121h2q-2 8 -4 33zM711 583.5q0 35.5 25 60.5t60.5 25t60.5 -25t25 -60.5t-25 -60.5t-60.5 -25
t-60.5 25t-25 60.5zM14 511q-10 -6 -13 -18t3 -22l303 -529q6 -10 18 -13t22 3l540 320q11 6 20.5 18.5t12.5 24.5l103 402q3 11 -3 21.5t-18 13.5l-394 107q-28 7 -53 -8z" />
    <glyph glyph-name="uniE653" unicode="&#xe653;" horiz-adv-x="1025" 
d="M171 460q10 8 26.5 19.5t57.5 30t70 17.5q-4 1 -11 2t-27 0t-38 -6.5t-40.5 -21.5t-37.5 -41zM24 440q6 6 18.5 14.5t52.5 29.5t81.5 36t104 25t123.5 5.5t135 -31.5t143 -79q-6 7 -17.5 17t-49.5 35t-78.5 43.5t-102 30.5t-123 6.5t-138 -38t-149.5 -94.5zM696 434
q58 -11 120 -20q7 -1 32.5 -3.5t37 -5t33 -10.5t33.5 -20t25 -34.5t21 -53.5v-9q-10 -23 -87 -31q3 -1 8.5 -1.5t21 0t28.5 3t27.5 10.5t21.5 21q6 10 6 22.5t-5.5 26t-16.5 26.5t-29.5 25t-41.5 22t-54 16.5t-67 8.5zM17 434q2 -29 -14 -94q-10 -44 12 -63.5t69 -22.5
q-7 2 -17 7t-28.5 19t-21.5 27q-3 11 3 57t-3 70zM259 247q285 -4 441 -7q36 0 28 2q-33 10 -220 16q-202 8 -249 -11zM104 273.5q0 27.5 20 47t47.5 19.5t47.5 -19.5t20 -47t-20 -47t-47.5 -19.5t-47.5 19.5t-20 47zM92 274q0 -33 23 -56.5t56.5 -23.5t56.5 23.5t23 56.5
t-23 56t-56.5 23t-56.5 -23t-23 -56zM749 273.5q0 27.5 19.5 47t47.5 19.5t47.5 -19.5t19.5 -47t-19.5 -47t-47.5 -19.5t-47.5 19.5t-19.5 47zM736 274q0 -33 23.5 -56.5t56.5 -23.5t56.5 23.5t23.5 56.5t-23.5 56t-56.5 23t-56.5 -23t-23.5 -56z" />
    <glyph glyph-name="uniE654" unicode="&#xe654;" horiz-adv-x="1025" 
d="M171 460q10 8 26.5 19.5t57.5 30t70 17.5q-4 1 -11 2t-27 0t-38 -6.5t-40.5 -21.5t-37.5 -41zM24 440q6 6 18.5 14.5t52.5 29.5t81.5 36t104 25t123.5 5.5t135 -31.5t143 -79q-6 7 -17.5 17t-49.5 35t-78.5 43.5t-102 30.5t-123 6.5t-138 -38t-149.5 -94.5zM696 434
q58 -11 120 -20q7 -1 32.5 -3.5t37 -5t33 -10.5t33.5 -20t25 -34.5t21 -53.5v-9q-10 -23 -87 -31q3 -1 8.5 -1.5t21 0t28.5 3t27.5 10.5t21.5 21q6 10 6 22.5t-5.5 26t-16.5 26.5t-29.5 25t-41.5 22t-54 16.5t-67 8.5zM17 434q2 -29 -14 -94q-10 -44 12 -63.5t69 -22.5
q-7 2 -17 7t-28.5 19t-21.5 27q-3 11 3 57t-3 70zM259 247q285 -4 441 -7q36 0 28 2q-33 10 -220 16q-202 8 -249 -11zM104 273.5q0 27.5 20 47t47.5 19.5t47.5 -19.5t20 -47t-20 -47t-47.5 -19.5t-47.5 19.5t-20 47zM92 274q0 -33 23 -56.5t56.5 -23.5t56.5 23.5t23 56.5
t-23 56t-56.5 23t-56.5 -23t-23 -56zM749 273.5q0 27.5 19.5 47t47.5 19.5t47.5 -19.5t19.5 -47t-19.5 -47t-47.5 -19.5t-47.5 19.5t-19.5 47zM736 274q0 -33 23.5 -56.5t56.5 -23.5t56.5 23.5t23.5 56.5t-23.5 56t-56.5 23t-56.5 -23t-23.5 -56zM272 384l185 -202
q7 11 19 30.5t51.5 74.5t80.5 103.5t101.5 104.5t118.5 91q-6 -2 -17.5 -6t-45 -18.5t-65 -31t-71.5 -43.5t-72 -55.5t-59.5 -68t-40.5 -80.5l-92 202l-20 -21z" />
    <glyph glyph-name="uniE655" unicode="&#xe655;" 
d="M0 384l341 -372q7 10 18.5 29t50 77t80 114t104.5 133t127 143t144.5 133.5t158.5 114.5q-12 -3 -32.5 -10.5t-82 -34.5t-119.5 -57.5t-132 -79.5t-133 -102.5t-110 -125.5t-74 -148l-170 372l-37 -40z" />
    <glyph glyph-name="uniE656" unicode="&#xe656;" horiz-adv-x="1000" 
d="M125 550v-625h875v625h-875zM938 29l-126 209l-141 -119l-109 181l-375 -312v500h750zM250 331q0 39 27.5 66.5t66.5 27.5t66.5 -27.5t27.5 -66.5t-27.5 -66t-66.5 -27t-66.5 27t-27.5 66zM875 675h-875v-625h62v562h813v63z" />
    <glyph glyph-name="uniE657" unicode="&#xe657;" 
d="M765 615q5 0 11.5 -0.5t24.5 -5.5t31.5 -14.5t24.5 -30.5t11 -50q1 -2 1 -5.5t-1.5 -13.5t-4.5 -19.5t-10 -21t-17.5 -20t-29 -14.5t-41.5 -6q-4 -1 -10.5 -0.5t-24 6t-30.5 15t-24 30.5t-10 49q0 4 0.5 10t5.5 22.5t14.5 29.5t30 25t48.5 14zM968 771q3 -1 6.5 -1.5
t13 -3.5t16.5 -8t13 -15.5t6 -23.5v-713q-1 -2 -1.5 -5.5t-3.5 -12.5t-8.5 -16t-16 -12.5t-25.5 -5.5v817zM1 6q1 -2 1 -6t3.5 -12.5t8.5 -15.5t15.5 -12.5t24.5 -5.5h914v150h-99l-203 207l-153 -154l-209 257l-205 -308l-45 -1l-2 613h-51v-712zM968 771h-914
q-3 0 -6.5 -0.5t-12.5 -3t-15.5 -7.5t-12.5 -16t-6 -25h967v52z" />
    <glyph glyph-name="uniE658" unicode="&#xe658;" 
d="M1024 382.5q0 103.5 -40.5 198t-108.5 163t-162.5 109t-198.5 40.5t-198.5 -40.5t-163 -109t-109 -163t-40.5 -198t40.5 -198t109 -163t163 -109t198.5 -40.5t198.5 40.5t162.5 109t108.5 163t40.5 198zM486 174l-181 181q-9 9 -9 22t9.5 22.5t22.5 9.5t22 -9l132 -132
v338q0 13 9.5 22.5t22.5 9.5t22.5 -9.5t9.5 -22.5v-338l131 132q9 9 22.5 9t23 -9.5t9.5 -22.5t-10 -22l-180 -181q-11 -11 -28 -8q-17 -3 -28 8z" />
    <glyph glyph-name="uniE659" unicode="&#xe659;" 
d="M512 -75h-102l-205 -137v205q-89 62 -147 166.5t-58 208.5q0 122 68.5 224t186.5 161t257 59t257 -59t186.5 -161t68.5 -223.5t-68.5 -224t-186.5 -161t-257 -58.5zM512 744q-122 0 -224 -49.5t-161 -136t-59 -190.5q0 -96 58.5 -192t146.5 -149v-137l137 103h102
q122 0 224 49t161 135.5t59 190.5t-59 190.5t-161 136t-224 49.5zM785 300q-28 0 -48 20t-20 48.5t20 48.5t48 20t48 -20t20 -48.5t-20 -48.5t-48 -20zM512 300q-28 0 -48 20t-20 48.5t20 48.5t48 20t48 -20t20 -48.5t-20 -48.5t-48 -20zM239 300q-28 0 -48 20t-20 48.5
t20 48.5t48 20t48 -20t20 -48.5t-20 -48.5t-48 -20z" />
    <glyph glyph-name="uniE65A" unicode="&#xe65a;" 
d="M706 104l-34 -24q-16 -11 -36 -12q192 -83 263 -140h-375h-375q38 30 117 70.5t120.5 58t61.5 26.5q18 7 19.5 26t-15.5 28q-45 26 -75 76t-34 106q-1 12 -9.5 20t-20.5 8h-2q-10 1 -10 13q0 9 7 12q11 5 15.5 15.5t0.5 21.5q-11 35 -11 73q0 92 61 157.5t148 65.5h1h1h2
h1q14 0 29 -2v21q0 20 8 39q-20 3 -37 3h-1h-2h-1h-1q-112 0 -191 -83.5t-79 -200.5q0 -36 8 -71q-20 -21 -20 -51q0 -23 12.5 -41.5t32.5 -27.5q16 -103 91 -173q-216 -93 -283 -159q-9 -9 -9 -22v-40q0 -13 9 -21.5t21 -8.5h410h410q13 0 22 8.5t9 21.5v40q0 13 -9 22
q-61 59 -250 145zM686 550q8 21 26 35q20 15 44 15q8 0 17 -2q40 -10 53 -48l34 -95l36 -1v270q0 13 -9 22t-22 9h-217q-13 0 -22 -9t-9 -22v-41v-229l36 1zM973 383q-3 9 -12 9l-65 1l-80 2l-20 59l-27 76q-3 9 -12.5 9t-12.5 -9l-9 -26l-38 -109l-80 -2l-65 -1
q-9 0 -12 -9t4 -15l75 -56l25 -18l16 -12l-40 -128l-2 -9q-3 -9 4 -14l4 -2h1q2 -1 3 -1t3 1h1q2 0 4 2l93 64l25 17l119 -81q4 -3 8 -3t7 3q8 5 5 14l-42 137l15 11l25 19l75 56q8 6 5 15z" />
    <glyph glyph-name="uniE65B" unicode="&#xe65b;" 
d="M128 352q0 62 22 121t61 103l-89 90q-122 -132 -122 -314t122 -314l89 90q-39 44 -61 103t-22 121zM480 704q62 0 121 -22t103 -61l90 89q-132 122 -314 122t-314 -122l90 -89q44 39 103 61t121 22zM832 352q0 -62 -22 -121t-61 -103l89 -90q122 132 122 314t-122 314
l-89 -90q39 -44 61 -103t22 -121zM570 6l-90 410l-90 -410q-6 -12 -6 -38q0 -38 29 -67t67 -29t67 29t29 67q0 26 -6 38z" />
    <glyph glyph-name="uniE65C" unicode="&#xe65c;" 
d="M691 579q-39 -77 -54.5 -165.5t-9.5 -159t19 -122.5t30 -74q-74 193 -9 443q12 48 24 78zM724 492v29q23 -6 32 -18t6 -21l-3 -9q-16 5 -35 19zM722 589v-65l-6 1q1 -1 6 -3l1 -29q-4 2 -1 -6l1 -3q2 -293 6 -434q2 57 0.5 158t-4.5 275l32 -15q1 0 3 1t5 5t3 9
q-1 31 -44 40zM713 821q10 -47 10 -79.5t-3 -55t4 -84.5q10 87 7.5 136t-10.5 66zM705 813q-2 -6 -16 3q-6 4 -18.5 19.5t-21.5 28.5l-9 14q5 -32 43 -70q28 -27 26 -6q-1 12 -4 11zM708 826q-16 36 -46 54t-48 15.5t-21 -4.5q19 2 41 -6q18 -8 36.5 -22.5t27.5 -25.5z
M332 579q4 -11 11 -31t21 -80.5t19.5 -120t-2 -140t-34.5 -149.5q17 22 30.5 74t19.5 122.5t-10 159t-55 165.5zM299 37q0 -1 5 -13t10.5 -29t6.5 -27t4.5 -20t16 -25t31.5 -25.5t55.5 -18t83.5 -7.5t83 7.5t55 18t31.5 25.5t16 25t4.5 20q2 10 7 27t10 29t5 13
q0 3 -3.5 0.5t-10.5 -19t-13 -45.5q-2 -28 -19.5 -48.5t-42 -29t-50.5 -14t-45.5 -4.5t-27.5 0q-9 1 -28 0t-45.5 4.5t-50.5 14t-42 29t-19 48.5q-7 29 -14 45.5t-10.5 19t-3.5 -0.5zM300 521l-1 -31q-7 -5 -13.5 -8t-10.5 -4.5t-6.5 -2.5t-3.5 -2h-1q-1 1 -2 3.5t-1 8.5
t2.5 12t11.5 12.5t25 11.5zM301 589l-1 -66q-17 -3 -30.5 -12.5t-13.5 -27.5q0 -8 2.5 -12t5.5 -3h3l32 15q-4 -171 -5.5 -275t0.5 -158q5 138 7 434q-2 0 0 9v29q3 1 6 3l-6 -1v65zM310 821q-1 -1 -3 -5t-7 -21t-7 -39t-1 -63t7 -91q6 53 2 112.5t9 106.5zM318 813l-4 -11
q0 -9 5 -8q7 0 21 14q17 17 28 34.5t13 26.5l3 9q-36 -53 -49 -62q-14 -9 -17 -3zM316 826q33 42 74 59q21 8 40 6q-3 2 -20.5 5t-47.5 -15.5t-46 -54.5zM411 223q6 -13 101 -15q94 2 100 15q-35 -7 -100 -8q-29 0 -54.5 2t-35.5 4zM381 478q4 -7 42.5 -11.5t88.5 -3.5
q49 -1 88 3.5t42 11.5q-5 -1 -15 -2.5t-44 -3.5t-71 -2q-38 0 -70.5 2t-46.5 4zM356 37q10 -13 156 -15q145 2 155 15q-55 -7 -155 -8q-45 0 -84 2.5t-56 4.5zM348 620q58 8 164 8q47 0 87.5 -2t58.5 -4l17 -2q-10 14 -163 15q-154 -1 -164 -15zM411 881q4 1 11.5 2.5
t34 3.5t55.5 1q29 1 54 -1t36 -4l10 -2q-2 7 -32.5 11t-67.5 4q-38 0 -68 -4t-33 -11z" />
    <glyph glyph-name="uniE65D" unicode="&#xe65d;" 
d="M653 566q2 8 2 0q6 -375 -12 -497q-1 -7 -4 0q-28 80 -25 231t39 266zM657 803q-24 35 -71 70v1t1 0q42 -14 69 -57q2 -2 2 -4l1 -10q0 -1 -0.5 -1t-1.5 1zM307 566q36 -115 39 -265.5t-25 -231.5q-3 -7 -4 0q-17 119 -12 497q0 8 2 0zM303 803q-2 -2 -2 0l1 10q0 2 2 4
q26 43 69 57q1 1 1 0.5t-1 -1.5q-46 -36 -70 -70zM480 892q-54 0 -73 -11q-10 -6 -9 -1q0 9 42 13q17 2 40 2q72 0 82 -14q1 -2 -1 -3q-3 0 -8 3q-17 10 -73 11zM480 457q-54 1 -128 -10q-7 -1 -9 6l-27 124q-3 14 7 25t29.5 17.5t39 11t42 6.5t31.5 2.5t15 0.5t15 -0.5
t31.5 -2.5t42 -6.5t39 -11t29.5 -17.5t7 -25l-27 -124q-2 -7 -9 -6q-74 11 -128 10zM306 -61q7 -20 28 -34t43 -20.5t48.5 -9.5t36.5 -3h18v103q-55 -2 -133 26q-7 3 -6 10l19 106q1 7 8 5q38 -9 112 -10q74 1 112 10q7 2 9 -5l18 -106q1 -7 -6 -10q-79 -28 -133 -26v-103
h18q10 0 36.5 3t48.5 9.5t43 20.5t28 34q21 82 21 90l3 8q7 13 0 123q-4 138 1 184q0 60 -3 153l25 -13q1 0 2 -0.5t1 0.5v2q-1 23 -29 36l-2 61q5 38 6 63l1 -1q2 33 2 66t-1 49l-1 16h-1q-3 10 -8 22t-16 32t-31.5 36t-46.5 23q-7 1 -14.5 1t-19.5 2q-21 4 -63 4t-63 -4
q-12 -2 -19.5 -2t-14.5 -1q-26 -7 -46.5 -23t-31.5 -36t-16 -32t-8 -22q-1 -7 -1.5 -18t-1 -46t2.5 -67v1l6 -63q-1 -25 -2 -61q-28 -13 -29 -36v-2q0 -1 1 -0.5t2 0.5l25 13q-3 -104 -3 -153q5 -46 1 -184q-7 -110 0 -123l2 -6q0 -2 1 -2q3 -18 21 -90zM480 -128v103v-103z
" />
    <glyph glyph-name="uniE662" unicode="&#xe662;" 
d="M687 -16l-408 409l391 391l58 -58l-333 -333l350 -351z" />
    <glyph glyph-name="uniE663" unicode="&#xe663;" 
d="M17 384q0 101 39 192.5t105.5 158t158 105.5t192.5 39t192.5 -39t158 -105.5t105.5 -158t39 -192.5t-39 -192.5t-105.5 -158t-158 -105.5t-192.5 -39t-192.5 39t-158 105.5t-105.5 158t-39 192.5zM0 384q0 -139 68.5 -257t186.5 -186.5t257 -68.5t257 68.5t186.5 186.5
t68.5 257t-68.5 257t-186.5 186.5t-257 68.5t-257 -68.5t-186.5 -186.5t-68.5 -257zM290 188l17 -17l205 204l205 -204l17 17l-205 205l188 187l-17 17l-188 -187l-188 187l-17 -17l188 -187z" />
    <glyph glyph-name="uniE664" unicode="&#xe664;" 
d="M949 -66l-221 222q-1 1 -3 2q76 99 76 223q0 100 -49.5 185t-134.5 134t-185 49t-184.5 -49t-134 -134t-49.5 -185t49.5 -185t134 -134t184.5 -49q125 0 224 75l2 -2l221 -221q12 -13 31 -11t33.5 16.5t16 33t-10.5 30.5zM105 381q0 89 44 164.5t119 119t164 43.5
t164.5 -43.5t119.5 -119t44 -164.5q0 -133 -93 -228l-3 -3q-2 -2 -3 -4q-96 -92 -229 -92q-89 0 -164 43.5t-119 119t-44 164.5z" />
    <glyph glyph-name="uniE665" unicode="&#xe665;" 
d="M195 657h210v57h-267v-268h57v211zM635 714v-57h210v-211h58v268h-268zM195 217h-57v-268h267v58h-210v210zM845 7h-210v-58h268v268h-58v-210zM252 313h536v38h-536v-38z" />
    <glyph glyph-name="uniE666" unicode="&#xe666;" horiz-adv-x="1025" 
d="M749 273q0 28 20 47.5t47.5 19.5t47.5 -19.5t20 -47.5t-20 -47.5t-47.5 -19.5t-47.5 19.5t-20 47.5zM739 273q0 -32 22.5 -54.5t55 -22.5t55 22.5t22.5 54.5t-22.5 54.5t-55 22.5t-55 -22.5t-22.5 -54.5zM104 273q0 28 20 47.5t47.5 19.5t47.5 -19.5t20 -47.5t-20 -47.5
t-47.5 -19.5t-47.5 19.5t-20 47.5zM94 273q0 -32 22.5 -54.5t54.5 -22.5t55 22.5t23 54.5t-23 54.5t-55 22.5t-54.5 -22.5t-22.5 -54.5zM610 253q-101 6 -185 7l102 88zM465 540q58 -12 114 -38l-50 -55zM24 440q5 4 15.5 11.5t44.5 26t70 33t90 27t107 13.5l133 -153
l-126 -139q-74 -3 -99 -12l86 -2l-12 -14l26 -28l48 41l213 -3l23 -27l29 24l-1 2h29q31 -1 29 1q-2 3 -64 8l-95 137l84 73q15 -10 28 -20q-9 9 -25 22l39 34l-57 73l-53 -59q-67 38 -136 53l-43 62l-53 -51q-170 0 -330 -133zM17 433q2 -29 -14 -93q-11 -45 11.5 -64
t69.5 -23q-7 3 -17 7.5t-28.5 18.5t-21.5 27q-3 11 3 57t-3 70zM810 426q-80 4 -111 6q59 -11 117 -19q7 -1 32.5 -3.5t37 -4.5t32.5 -10.5t33.5 -20.5t25.5 -34.5t21 -53.5v-9q-10 -22 -88 -31q4 0 9.5 -1t21 -0.5t28.5 3t27 11t22 21.5q6 10 6 22t-5.5 25.5t-16.5 26.5
t-29.5 25.5t-41.5 22t-54.5 16t-66.5 8.5zM695 433h-8q3 0 13 -1zM171 460q10 7 26.5 18.5t57.5 30t70 17.5q-4 1 -11 2t-27 0t-38 -6.5t-40.5 -21.5t-37.5 -40z" />
    <glyph glyph-name="uniE667" unicode="&#xe667;" 
d="M211 391q-38 0 -64.5 -26.5t-26.5 -64.5t26.5 -64.5t64.5 -26.5t65 26.5t27 64.5t-27 64.5t-65 26.5zM503 391q-38 0 -65 -26.5t-27 -64.5t27 -64.5t65 -26.5t64.5 26.5t26.5 64.5t-26.5 64.5t-64.5 26.5zM813 391q-38 0 -65 -26.5t-27 -64.5t27 -64.5t65 -26.5
t64.5 26.5t26.5 64.5t-26.5 64.5t-64.5 26.5z" />
    <glyph glyph-name="uniE668" unicode="&#xe668;" 
d="M386 585.5q0 -61.5 44 -105t105.5 -43.5t105 43.5t43.5 105t-43.5 105t-105 43.5t-105.5 -43.5t-44 -105zM842 585q0 128 -90 217.5t-217 89.5t-217 -89.5t-90 -217.5q0 -66 26.5 -124.5t73.5 -101.5l-106 -429l132 60l88 -114l90 364l90 -364l88 114l132 -60l-105 425
q49 43 77 103t28 127zM311 585q0 93 65.5 159t158.5 66t159 -66t66 -159t-66 -158.5t-159 -65.5t-158.5 65.5t-65.5 158.5z" />
  </font>
</defs>
</svg>
